<svg width="345" height="43" viewBox="0 0 345 43" fill="none" xmlns="http://www.w3.org/2000/svg">
<path d="M7.91181 37V33.364H4.28781V37H3.13581V28.84L4.28781 28.78V32.44H7.91181V28.84H9.06381V37H7.91181ZM13.4395 37.156C12.5595 37.148 11.8915 36.86 11.4355 36.292C10.9795 35.716 10.7515 34.976 10.7515 34.072C10.7595 33.176 11.0075 32.448 11.4955 31.888C11.9835 31.32 12.6675 31.032 13.5475 31.024C14.4595 31.024 15.1475 31.316 15.6115 31.9C16.0835 32.476 16.3195 33.22 16.3195 34.132C16.3195 35.036 16.0635 35.764 15.5515 36.316C15.0395 36.868 14.3355 37.148 13.4395 37.156ZM15.1555 34.132C15.1555 33.508 15.0315 33 14.7835 32.608C14.5355 32.208 14.1355 32.008 13.5835 32.008C13.0315 32.008 12.6195 32.196 12.3475 32.572C12.0755 32.94 11.9355 33.436 11.9275 34.06C11.9275 34.708 12.0435 35.224 12.2755 35.608C12.5155 35.984 12.9115 36.172 13.4635 36.172C14.0075 36.172 14.4235 35.992 14.7115 35.632C14.9995 35.272 15.1475 34.772 15.1555 34.132ZM21.1026 32.404C20.8786 32.3 20.6426 32.208 20.3946 32.128C20.1546 32.048 19.8786 32.008 19.5666 32.008C19.2626 32.008 19.0186 32.072 18.8346 32.2C18.6586 32.32 18.5706 32.484 18.5706 32.692C18.5786 32.868 18.6826 33.024 18.8826 33.16C19.0906 33.288 19.3706 33.412 19.7226 33.532C20.2026 33.708 20.6506 33.948 21.0666 34.252C21.4826 34.548 21.6906 34.936 21.6906 35.416C21.6906 35.96 21.4866 36.388 21.0786 36.7C20.6786 37.004 20.0946 37.156 19.3266 37.156C19.0786 37.156 18.7586 37.112 18.3666 37.024C17.9746 36.936 17.6546 36.804 17.4066 36.628L17.7666 35.776C18.0146 35.896 18.2706 35.992 18.5346 36.064C18.7986 36.136 19.0626 36.172 19.3266 36.172C19.7106 36.172 20.0066 36.112 20.2146 35.992C20.4306 35.872 20.5386 35.7 20.5386 35.476C20.5386 35.252 20.4226 35.06 20.1906 34.9C19.9666 34.732 19.6666 34.588 19.2906 34.468C18.8346 34.316 18.4026 34.104 17.9946 33.832C17.5866 33.56 17.3826 33.188 17.3826 32.716C17.3826 32.188 17.5786 31.776 17.9706 31.48C18.3706 31.176 18.9106 31.024 19.5906 31.024C19.8386 31.024 20.1506 31.072 20.5266 31.168C20.9026 31.264 21.2146 31.4 21.4626 31.576L21.1026 32.404ZM24.2515 35.656C24.4515 35.816 24.6675 35.944 24.8995 36.04C25.1315 36.128 25.3475 36.172 25.5475 36.172C26.1475 36.172 26.5675 35.964 26.8075 35.548C27.0555 35.124 27.1795 34.636 27.1795 34.084C27.1795 33.5 27.0635 33.004 26.8315 32.596C26.5995 32.18 26.1715 31.972 25.5475 31.972C25.3475 31.972 25.1315 32.02 24.8995 32.116C24.6675 32.204 24.4515 32.332 24.2515 32.5V35.656ZM23.0995 39.628V31.18H23.7475L23.9995 31.672C24.2555 31.472 24.5475 31.308 24.8755 31.18C25.2035 31.052 25.5035 30.988 25.7755 30.988C26.6315 30.988 27.2755 31.284 27.7075 31.876C28.1395 32.46 28.3555 33.192 28.3555 34.072C28.3555 34.952 28.1355 35.684 27.6955 36.268C27.2635 36.852 26.6235 37.144 25.7755 37.144C25.5355 37.144 25.2795 37.096 25.0075 37C24.7355 36.912 24.4835 36.788 24.2515 36.628V39.496L23.0995 39.628ZM30.3781 30.136C30.1781 30.136 30.0101 30.068 29.8741 29.932C29.7381 29.788 29.6701 29.616 29.6701 29.416C29.6621 29.216 29.7261 29.048 29.8621 28.912C30.0061 28.768 30.1781 28.696 30.3781 28.696C30.5781 28.696 30.7501 28.768 30.8941 28.912C31.0381 29.048 31.1101 29.216 31.1101 29.416C31.1101 29.616 31.0381 29.788 30.8941 29.932C30.7501 30.068 30.5781 30.136 30.3781 30.136ZM29.8021 37V31.18H30.9661V37H29.8021ZM35.6718 36.952C35.5678 37.008 35.4198 37.064 35.2278 37.12C35.0438 37.176 34.8638 37.204 34.6878 37.204C34.1198 37.204 33.6678 37.048 33.3318 36.736C32.9958 36.424 32.8278 35.972 32.8278 35.38V32.128H32.0118L31.9998 31.252H32.8278V29.8L33.9798 29.536V31.252H35.0358L35.3958 32.128H33.9798V35.2C33.9798 35.496 34.0438 35.74 34.1718 35.932C34.3078 36.116 34.5198 36.208 34.8078 36.208C34.9038 36.208 34.9998 36.196 35.0958 36.172C35.1998 36.14 35.2918 36.108 35.3717 36.076L35.6718 36.952ZM37.5539 35.32C37.5539 35.544 37.6339 35.752 37.7939 35.944C37.9539 36.136 38.1979 36.232 38.5259 36.232C38.8219 36.232 39.0979 36.16 39.3539 36.016C39.6179 35.872 39.8499 35.688 40.0499 35.464V34.288H38.6339C38.2819 34.288 38.0139 34.392 37.8299 34.6C37.6459 34.808 37.5539 35.048 37.5539 35.32ZM36.8699 31.54C37.0939 31.388 37.4179 31.264 37.8419 31.168C38.2659 31.072 38.6019 31.024 38.8499 31.024C39.5219 31.024 40.0819 31.212 40.5299 31.588C40.9779 31.964 41.2019 32.452 41.2019 33.052V37H40.5539C40.4979 36.912 40.4459 36.82 40.3979 36.724C40.3499 36.628 40.3019 36.536 40.2539 36.448C40.0539 36.624 39.7979 36.784 39.4859 36.928C39.1739 37.072 38.8619 37.144 38.5499 37.144C37.8619 37.144 37.3499 36.972 37.0139 36.628C36.6859 36.284 36.5219 35.848 36.5219 35.32C36.5219 34.736 36.7179 34.292 37.1099 33.988C37.5099 33.676 38.0259 33.52 38.6579 33.52H40.0379C40.0379 33.12 39.9579 32.776 39.7979 32.488C39.6379 32.2 39.3299 32.056 38.8739 32.056C38.5299 32.056 38.2179 32.1 37.9379 32.188C37.6579 32.268 37.4099 32.356 37.1939 32.452L36.8699 31.54ZM42.9276 37V28.66L44.0796 28.528V37H42.9276Z" fill="#7B7E84"/>
<path d="M308.327 35.644C308.551 35.756 308.851 35.872 309.227 35.992C309.603 36.104 309.975 36.16 310.343 36.16C310.927 36.16 311.371 36.052 311.675 35.836C311.979 35.62 312.131 35.336 312.131 34.984C312.131 34.176 311.427 33.58 310.019 33.196C308.619 32.804 307.919 31.992 307.919 30.76C307.919 30.168 308.155 29.668 308.627 29.26C309.107 28.852 309.763 28.648 310.595 28.648C311.003 28.648 311.395 28.704 311.771 28.816C312.155 28.928 312.483 29.052 312.755 29.188C312.699 29.34 312.635 29.492 312.563 29.644C312.491 29.796 312.427 29.948 312.371 30.1C312.163 29.996 311.923 29.9 311.651 29.812C311.387 29.716 311.063 29.668 310.679 29.668C310.223 29.668 309.839 29.756 309.527 29.932C309.223 30.108 309.071 30.376 309.071 30.736C309.071 31.56 309.775 32.172 311.183 32.572C312.591 32.972 313.295 33.768 313.295 34.96C313.295 35.6 313.039 36.128 312.527 36.544C312.023 36.952 311.299 37.156 310.355 37.156C310.011 37.156 309.583 37.092 309.071 36.964C308.559 36.836 308.223 36.7 308.063 36.556C308.103 36.404 308.143 36.252 308.183 36.1C308.231 35.948 308.279 35.796 308.327 35.644ZM318.623 36.388C318.367 36.628 318.059 36.824 317.699 36.976C317.347 37.12 317.015 37.192 316.703 37.192C315.991 37.192 315.471 36.988 315.143 36.58C314.823 36.164 314.663 35.644 314.663 35.02V31.18H315.827V34.936C315.827 35.312 315.919 35.62 316.103 35.86C316.295 36.092 316.575 36.208 316.943 36.208C317.159 36.208 317.407 36.152 317.687 36.04C317.967 35.92 318.227 35.76 318.467 35.56V31.18H319.619V37H318.959L318.623 36.388ZM321.404 37V28.66L322.556 28.528V31.516C322.788 31.364 323.04 31.24 323.312 31.144C323.584 31.04 323.84 30.988 324.08 30.988C324.936 30.988 325.58 31.284 326.012 31.876C326.444 32.46 326.66 33.192 326.66 34.072C326.66 34.952 326.44 35.684 326 36.268C325.568 36.852 324.928 37.144 324.08 37.144C323.808 37.144 323.512 37.088 323.192 36.976C322.872 36.856 322.584 36.696 322.328 36.496L322.052 37H321.404ZM322.556 35.656C322.756 35.816 322.972 35.944 323.204 36.04C323.436 36.128 323.652 36.172 323.852 36.172C324.452 36.172 324.872 35.964 325.112 35.548C325.36 35.124 325.484 34.636 325.484 34.084C325.484 33.5 325.368 33.004 325.136 32.596C324.904 32.18 324.476 31.972 323.852 31.972C323.652 31.972 323.436 32.02 323.204 32.116C322.972 32.204 322.756 32.332 322.556 32.5V35.656ZM332.739 31.936C332.987 31.664 333.303 31.44 333.687 31.264C334.079 31.08 334.447 30.988 334.791 30.988C335.503 30.988 336.019 31.196 336.339 31.612C336.667 32.02 336.831 32.536 336.831 33.16V37H335.667V33.268C335.667 32.876 335.571 32.564 335.379 32.332C335.195 32.1 334.915 31.98 334.539 31.972C334.291 31.972 334.027 32.04 333.747 32.176C333.467 32.312 333.211 32.492 332.979 32.716C332.987 32.796 332.991 32.872 332.991 32.944C332.999 33.008 333.003 33.08 333.003 33.16V37H331.839V33.268C331.839 32.876 331.747 32.564 331.563 32.332C331.379 32.1 331.103 31.98 330.735 31.972C330.495 31.972 330.243 32.032 329.979 32.152C329.715 32.272 329.471 32.444 329.247 32.668V37H328.095V31.18H328.743L329.055 31.804C329.311 31.564 329.615 31.368 329.967 31.216C330.327 31.064 330.663 30.988 330.975 30.988C331.415 30.988 331.779 31.076 332.067 31.252C332.363 31.42 332.587 31.648 332.739 31.936ZM339.101 30.136C338.901 30.136 338.733 30.068 338.597 29.932C338.461 29.788 338.393 29.616 338.393 29.416C338.385 29.216 338.449 29.048 338.585 28.912C338.729 28.768 338.901 28.696 339.101 28.696C339.301 28.696 339.473 28.768 339.617 28.912C339.761 29.048 339.833 29.216 339.833 29.416C339.833 29.616 339.761 29.788 339.617 29.932C339.473 30.068 339.301 30.136 339.101 30.136ZM338.525 37V31.18H339.689V37H338.525ZM344.394 36.952C344.29 37.008 344.142 37.064 343.95 37.12C343.766 37.176 343.586 37.204 343.41 37.204C342.842 37.204 342.39 37.048 342.054 36.736C341.718 36.424 341.55 35.972 341.55 35.38V32.128H340.734L340.722 31.252H341.55V29.8L342.702 29.536V31.252H343.758L344.118 32.128H342.702V35.2C342.702 35.496 342.766 35.74 342.894 35.932C343.03 36.116 343.242 36.208 343.53 36.208C343.626 36.208 343.722 36.196 343.818 36.172C343.922 36.14 344.014 36.108 344.094 36.076L344.394 36.952Z" fill="#7B7E84"/>
<path d="M143.934 32.956C143.934 31.732 144.246 30.716 144.87 29.908C145.502 29.092 146.41 28.672 147.594 28.648C148.858 28.648 149.782 29.068 150.366 29.908C150.95 30.74 151.242 31.728 151.242 32.872C151.242 34.064 150.926 35.076 150.294 35.908C149.662 36.732 148.75 37.152 147.558 37.168C146.302 37.168 145.382 36.752 144.798 35.92C144.222 35.088 143.934 34.1 143.934 32.956ZM145.134 32.944C145.134 33.856 145.326 34.624 145.71 35.248C146.102 35.872 146.714 36.184 147.546 36.184C148.306 36.184 148.906 35.892 149.346 35.308C149.794 34.724 150.018 33.912 150.018 32.872C150.018 31.968 149.826 31.204 149.442 30.58C149.058 29.956 148.45 29.644 147.618 29.644C146.874 29.644 146.274 29.952 145.818 30.568C145.362 31.176 145.134 31.968 145.134 32.944ZM157.918 37L156.514 32.86L155.182 37H154.126L152.17 31.348L153.346 31.18L154.666 35.284L155.926 31.18H157.138L158.458 35.284L159.718 31.18H160.906L158.974 37H157.918ZM162.945 31.948C163.193 31.676 163.513 31.448 163.905 31.264C164.297 31.08 164.661 30.988 164.997 30.988C165.709 30.988 166.225 31.196 166.545 31.612C166.873 32.02 167.037 32.536 167.037 33.16V37H165.885V33.268C165.885 32.876 165.789 32.564 165.597 32.332C165.413 32.1 165.133 31.98 164.757 31.972C164.517 31.972 164.237 32.048 163.917 32.2C163.597 32.352 163.321 32.552 163.089 32.8V37H161.937V31.18H162.585L162.945 31.948ZM171.821 37V28.84H174.641C175.905 28.84 176.825 29.228 177.401 30.004C177.985 30.772 178.277 31.728 178.277 32.872C178.277 34.064 177.961 35.052 177.329 35.836C176.697 36.612 175.785 37 174.593 37H171.821ZM174.689 29.824H172.973V36.04H174.593C175.345 36.04 175.953 35.772 176.417 35.236C176.881 34.7 177.113 33.916 177.113 32.884C177.113 31.98 176.917 31.244 176.525 30.676C176.133 30.108 175.521 29.824 174.689 29.824ZM184.964 34.348H180.836C180.876 34.884 181.044 35.324 181.34 35.668C181.636 36.012 182.08 36.184 182.672 36.184C183.016 36.184 183.304 36.148 183.536 36.076C183.776 35.996 184.016 35.9 184.256 35.788L184.616 36.628C184.36 36.804 184.032 36.932 183.632 37.012C183.24 37.1 182.92 37.144 182.672 37.144C181.696 37.144 180.944 36.864 180.416 36.304C179.896 35.736 179.636 34.996 179.636 34.084C179.636 33.18 179.88 32.444 180.368 31.876C180.864 31.308 181.548 31.024 182.42 31.024C183.364 31.024 184.024 31.356 184.4 32.02C184.776 32.684 184.964 33.46 184.964 34.348ZM183.848 33.568C183.776 33.088 183.624 32.708 183.392 32.428C183.16 32.148 182.824 32.008 182.384 32.008C181.936 32.008 181.584 32.152 181.328 32.44C181.072 32.72 180.916 33.096 180.86 33.568H183.848ZM189.299 36.952C189.195 37.008 189.047 37.064 188.855 37.12C188.671 37.176 188.491 37.204 188.315 37.204C187.747 37.204 187.295 37.048 186.959 36.736C186.623 36.424 186.455 35.972 186.455 35.38V32.128H185.639L185.627 31.252H186.455V29.8L187.607 29.536V31.252H188.663L189.023 32.128H187.607V35.2C187.607 35.496 187.671 35.74 187.799 35.932C187.935 36.116 188.147 36.208 188.435 36.208C188.531 36.208 188.627 36.196 188.723 36.172C188.827 36.14 188.919 36.108 188.999 36.076L189.299 36.952ZM191.181 35.32C191.181 35.544 191.261 35.752 191.421 35.944C191.581 36.136 191.825 36.232 192.153 36.232C192.449 36.232 192.725 36.16 192.981 36.016C193.245 35.872 193.477 35.688 193.677 35.464V34.288H192.261C191.909 34.288 191.641 34.392 191.457 34.6C191.273 34.808 191.181 35.048 191.181 35.32ZM190.497 31.54C190.721 31.388 191.045 31.264 191.469 31.168C191.893 31.072 192.229 31.024 192.477 31.024C193.149 31.024 193.709 31.212 194.157 31.588C194.605 31.964 194.829 32.452 194.829 33.052V37H194.181C194.125 36.912 194.073 36.82 194.025 36.724C193.977 36.628 193.929 36.536 193.881 36.448C193.681 36.624 193.425 36.784 193.113 36.928C192.801 37.072 192.489 37.144 192.177 37.144C191.489 37.144 190.977 36.972 190.641 36.628C190.313 36.284 190.149 35.848 190.149 35.32C190.149 34.736 190.345 34.292 190.737 33.988C191.137 33.676 191.653 33.52 192.285 33.52H193.665C193.665 33.12 193.585 32.776 193.425 32.488C193.265 32.2 192.957 32.056 192.501 32.056C192.157 32.056 191.845 32.1 191.565 32.188C191.285 32.268 191.037 32.356 190.821 32.452L190.497 31.54ZM197.107 30.136C196.907 30.136 196.739 30.068 196.603 29.932C196.467 29.788 196.399 29.616 196.399 29.416C196.391 29.216 196.455 29.048 196.591 28.912C196.735 28.768 196.907 28.696 197.107 28.696C197.307 28.696 197.479 28.768 197.623 28.912C197.767 29.048 197.839 29.216 197.839 29.416C197.839 29.616 197.767 29.788 197.623 29.932C197.479 30.068 197.307 30.136 197.107 30.136ZM196.531 37V31.18H197.695V37H196.531ZM199.484 37V28.66L200.636 28.528V37H199.484ZM205.761 32.404C205.537 32.3 205.301 32.208 205.053 32.128C204.813 32.048 204.537 32.008 204.225 32.008C203.921 32.008 203.677 32.072 203.493 32.2C203.317 32.32 203.229 32.484 203.229 32.692C203.237 32.868 203.341 33.024 203.541 33.16C203.749 33.288 204.029 33.412 204.381 33.532C204.861 33.708 205.309 33.948 205.725 34.252C206.141 34.548 206.349 34.936 206.349 35.416C206.349 35.96 206.145 36.388 205.737 36.7C205.337 37.004 204.753 37.156 203.985 37.156C203.737 37.156 203.417 37.112 203.025 37.024C202.633 36.936 202.313 36.804 202.065 36.628L202.425 35.776C202.673 35.896 202.929 35.992 203.193 36.064C203.457 36.136 203.721 36.172 203.985 36.172C204.369 36.172 204.665 36.112 204.873 35.992C205.089 35.872 205.197 35.7 205.197 35.476C205.197 35.252 205.081 35.06 204.849 34.9C204.625 34.732 204.325 34.588 203.949 34.468C203.493 34.316 203.061 34.104 202.653 33.832C202.245 33.56 202.041 33.188 202.041 32.716C202.041 32.188 202.237 31.776 202.629 31.48C203.029 31.176 203.569 31.024 204.249 31.024C204.497 31.024 204.809 31.072 205.185 31.168C205.561 31.264 205.873 31.4 206.121 31.576L205.761 32.404Z" fill="#7B7E84"/>
<path d="M336.267 10.9593C336.267 16.7391 331.615 21.4186 325.884 21.4186C320.152 21.4186 315.5 16.7391 315.5 10.9593C315.5 5.17952 320.152 0.5 325.884 0.5C331.615 0.5 336.267 5.17952 336.267 10.9593Z" stroke="#C4C4C4"/>
<path d="M325.6 5.736C326.699 5.736 327.52 6.008 328.064 6.552C328.608 7.096 328.88 7.72 328.88 8.424C328.88 8.95733 328.72 9.432 328.4 9.848C328.08 10.2533 327.717 10.5307 327.312 10.68C327.771 10.7867 328.176 11.0693 328.528 11.528C328.891 11.976 329.072 12.5307 329.072 13.192C329.072 14.0453 328.736 14.76 328.064 15.336C327.403 15.9227 326.507 16.216 325.376 16.216C324.779 16.216 324.192 16.12 323.616 15.928C323.04 15.736 322.539 15.528 322.112 15.304L322.896 14.248C323.291 14.4827 323.675 14.664 324.048 14.792C324.432 14.9093 324.885 14.968 325.408 14.968C325.963 14.968 326.464 14.8133 326.912 14.504C327.371 14.1947 327.6 13.7627 327.6 13.208C327.6 12.632 327.381 12.168 326.944 11.816C326.507 11.464 325.797 11.288 324.816 11.288H324.336L324.112 10.12H324.912C325.68 10.12 326.288 9.97067 326.736 9.672C327.184 9.36267 327.408 8.95733 327.408 8.456C327.408 8.06133 327.243 7.72 326.912 7.432C326.581 7.13333 326.128 6.984 325.552 6.984C325.029 6.984 324.555 7.07467 324.128 7.256C323.701 7.43733 323.355 7.61867 323.088 7.8L322.352 6.776C322.811 6.47733 323.307 6.232 323.84 6.04C324.373 5.83733 324.96 5.736 325.6 5.736Z" fill="#C4C4C4"/>
<path d="M328.064 6.552L327.357 7.25911L327.357 7.25911L328.064 6.552ZM328.4 9.848L329.185 10.4677L329.193 10.4577L328.4 9.848ZM327.312 10.68L326.966 9.74166L323.83 10.897L327.086 11.654L327.312 10.68ZM328.528 11.528L327.735 12.1368L327.743 12.1471L327.751 12.1572L328.528 11.528ZM328.064 15.336L327.413 14.5767L327.407 14.5823L327.4 14.5879L328.064 15.336ZM323.616 15.928L323.932 14.9793L323.616 15.928ZM322.112 15.304L321.309 14.7079L320.612 15.6462L321.647 16.1894L322.112 15.304ZM322.896 14.248L323.407 13.3885L322.631 12.9271L322.093 13.6519L322.896 14.248ZM324.048 14.792L323.724 15.7379L323.74 15.7434L323.756 15.7484L324.048 14.792ZM326.912 14.504L326.353 13.6749L326.344 13.6811L326.912 14.504ZM326.944 11.816L327.571 11.037L326.944 11.816ZM324.336 11.288L323.354 11.4763L323.51 12.288H324.336V11.288ZM324.112 10.12V9.12H322.902L323.13 10.3083L324.112 10.12ZM326.736 9.672L327.291 10.5041L327.297 10.4995L327.304 10.4949L326.736 9.672ZM326.912 7.432L326.242 8.1741L326.248 8.18015L326.255 8.18608L326.912 7.432ZM324.128 7.256L324.519 8.17633V8.17633L324.128 7.256ZM323.088 7.8L322.276 8.38364L322.845 9.17479L323.65 8.62693L323.088 7.8ZM322.352 6.776L321.806 5.938L320.929 6.50938L321.54 7.35964L322.352 6.776ZM323.84 6.04L324.179 6.98089L324.187 6.97791L324.195 6.97478L323.84 6.04ZM325.6 6.736C326.548 6.736 327.068 6.97042 327.357 7.25911L328.771 5.84489C327.972 5.04557 326.85 4.736 325.6 4.736V6.736ZM327.357 7.25911C327.733 7.63473 327.88 8.01113 327.88 8.424H329.88C329.88 7.42887 329.484 6.55727 328.771 5.84489L327.357 7.25911ZM327.88 8.424C327.88 8.74065 327.791 9.00013 327.607 9.23829L329.193 10.4577C329.649 9.86387 329.88 9.17402 329.88 8.424H327.88ZM327.615 9.22836C327.387 9.51751 327.168 9.66753 326.966 9.74166L327.658 11.6183C328.267 11.3938 328.773 10.9892 329.185 10.4676L327.615 9.22836ZM327.086 11.654C327.271 11.6971 327.491 11.8186 327.735 12.1368L329.321 10.9192C328.862 10.32 328.271 9.87624 327.539 9.70599L327.086 11.654ZM327.751 12.1572C327.948 12.4014 328.072 12.7242 328.072 13.192H330.072C330.072 12.3371 329.833 11.5506 329.305 10.8988L327.751 12.1572ZM328.072 13.192C328.072 13.7412 327.873 14.1826 327.413 14.5767L328.715 16.0953C329.599 15.3374 330.072 14.3495 330.072 13.192H328.072ZM327.4 14.5879C326.969 14.971 326.332 15.216 325.376 15.216V17.216C326.681 17.216 327.837 16.8743 328.728 16.0841L327.4 14.5879ZM325.376 15.216C324.888 15.216 324.408 15.1379 323.932 14.9793L323.3 16.8767C323.976 17.1021 324.669 17.216 325.376 17.216V15.216ZM323.932 14.9793C323.395 14.8002 322.945 14.6121 322.577 14.4186L321.647 16.1894C322.132 16.4439 322.685 16.6718 323.3 16.8767L323.932 14.9793ZM322.915 15.9001L323.699 14.8441L322.093 13.6519L321.309 14.7079L322.915 15.9001ZM322.385 15.1075C322.829 15.3718 323.276 15.5844 323.724 15.7379L324.372 13.8461C324.074 13.7436 323.752 13.5935 323.407 13.3885L322.385 15.1075ZM323.756 15.7484C324.258 15.9018 324.814 15.968 325.408 15.968V13.968C324.956 13.968 324.606 13.9168 324.34 13.8356L323.756 15.7484ZM325.408 15.968C326.162 15.968 326.862 15.7539 327.48 15.3269L326.344 13.6811C326.066 13.8728 325.764 13.968 325.408 13.968V15.968ZM327.471 15.3331C328.206 14.8373 328.6 14.0941 328.6 13.208H326.6C326.6 13.4312 326.535 13.5521 326.353 13.6749L327.471 15.3331ZM328.6 13.208C328.6 12.3384 328.251 11.5845 327.571 11.037L326.317 12.595C326.511 12.7515 326.6 12.9256 326.6 13.208H328.6ZM327.571 11.037C326.865 10.4688 325.872 10.288 324.816 10.288V12.288C325.723 12.288 326.148 12.4592 326.317 12.595L327.571 11.037ZM324.816 10.288H324.336V12.288H324.816V10.288ZM325.318 11.0997L325.094 9.93165L323.13 10.3083L323.354 11.4763L325.318 11.0997ZM324.112 11.12H324.912V9.12H324.112V11.12ZM324.912 11.12C325.797 11.12 326.622 10.9497 327.291 10.5041L326.181 8.83995C325.954 8.99165 325.563 9.12 324.912 9.12V11.12ZM327.304 10.4949C327.995 10.0177 328.408 9.31779 328.408 8.456H326.408C326.408 8.59687 326.373 8.70759 326.168 8.8491L327.304 10.4949ZM328.408 8.456C328.408 7.73802 328.09 7.13219 327.569 6.67792L326.255 8.18608C326.395 8.30781 326.408 8.38464 326.408 8.456H328.408ZM327.582 6.6899C327.019 6.18125 326.301 5.984 325.552 5.984V7.984C325.955 7.984 326.144 8.08542 326.242 8.1741L327.582 6.6899ZM325.552 5.984C324.912 5.984 324.302 6.09546 323.737 6.33567L324.519 8.17633C324.807 8.05387 325.147 7.984 325.552 7.984V5.984ZM323.737 6.33567C323.274 6.53244 322.864 6.74305 322.526 6.97307L323.65 8.62693C323.845 8.49429 324.129 8.34222 324.519 8.17633L323.737 6.33567ZM323.9 7.21636L323.164 6.19236L321.54 7.35964L322.276 8.38364L323.9 7.21636ZM322.898 7.614C323.289 7.35899 323.716 7.14764 324.179 6.98089L323.501 5.09911C322.898 5.31636 322.332 5.59568 321.806 5.938L322.898 7.614ZM324.195 6.97478C324.602 6.82016 325.067 6.736 325.6 6.736V4.736C324.853 4.736 324.145 4.85451 323.485 5.10522L324.195 6.97478Z" fill="#C4C4C4"/>
<path d="M33.2674 10.9593C33.2674 16.7391 28.6152 21.4186 22.8837 21.4186C17.1522 21.4186 12.5 16.7391 12.5 10.9593C12.5 5.17952 17.1522 0.5 22.8837 0.5C28.6152 0.5 33.2674 5.17952 33.2674 10.9593Z" fill="#118592" stroke="#C4C4C4"/>
<path d="M25.3466 15H20.7546L20.6106 13.88H22.3386V7.752L21.3146 8.408L20.5946 7.352L22.8506 5.944H23.8746V13.88H25.2026L25.3466 15Z" fill="#FCFCFC"/>
<line x1="33" y1="10.5" x2="164" y2="10.5" stroke="#C4C4C4"/>
<line x1="186" y1="10.5" x2="315" y2="10.5" stroke="#C4C4C4"/>
<path d="M185.267 10.9593C185.267 16.7391 180.615 21.4186 174.884 21.4186C169.152 21.4186 164.5 16.7391 164.5 10.9593C164.5 5.17952 169.152 0.5 174.884 0.5C180.615 0.5 185.267 5.17952 185.267 10.9593Z" stroke="#C4C4C4"/>
<path d="M174.547 5.736C175.731 5.736 176.558 6.03467 177.027 6.632C177.507 7.22933 177.747 7.85867 177.747 8.52C177.747 9.13867 177.55 9.70933 177.155 10.232C176.771 10.7547 176.195 11.3467 175.427 12.008L173.363 13.816H177.907L178.115 15H171.395V13.912L174.595 11.032C175.235 10.456 175.672 9.992 175.907 9.64C176.152 9.288 176.28 8.91467 176.291 8.52C176.291 8.08267 176.136 7.72 175.827 7.432C175.528 7.13333 175.091 6.984 174.515 6.984C174.056 6.984 173.587 7.11733 173.107 7.384C172.638 7.65067 172.398 7.78933 172.387 7.8L171.715 6.728C171.864 6.61067 172.19 6.41867 172.691 6.152C173.192 5.87467 173.811 5.736 174.547 5.736Z" fill="#C4C4C4"/>
</svg>
