<svg width="182" height="182" viewBox="0 0 182 182" fill="none" xmlns="http://www.w3.org/2000/svg">
<rect width="182" height="182" fill="white" fill-opacity="0.9"/>
<path d="M74.1084 104.855V61C65.8855 61.5482 61.1353 62.8129 52.7289 67.0301C44.3237 71.748 39.7888 75.4708 31.8976 83.4759C24.6762 91.5482 21.4017 96.2856 16 104.855C29.9846 88.5279 37.9277 81.2831 48.8916 81.8313C59.8554 82.3795 61.5 104.855 61.5 104.855H74.1084Z" fill="#118592" stroke="#118592" stroke-width="0.1"/>
<path d="M82.4142 97.5502C81.1449 96.9155 79.8755 96.0942 78.6062 95.0862C77.3369 94.0595 76.7022 92.7342 76.7022 91.1102C76.7209 89.5422 77.3649 88.2449 78.6342 87.2182C79.9035 86.1729 81.6209 85.6502 83.7862 85.6502C84.7382 85.6502 85.7182 85.7902 86.7262 86.0702C87.7529 86.3315 88.6395 86.7142 89.3862 87.2182L87.8742 90.6622C86.8662 90.3075 86.1009 90.0835 85.5782 89.9902C85.0555 89.8782 84.4769 89.8222 83.8422 89.8222C83.2635 89.8222 82.8062 89.9622 82.4702 90.2422C82.1342 90.5035 81.9662 90.8115 81.9662 91.1662C81.9662 91.5769 82.2462 91.9409 82.8062 92.2582C83.3849 92.5569 84.0662 92.9115 84.8502 93.3222C86.1942 94.0129 87.4915 94.8809 88.7422 95.9262C89.9929 96.9715 90.6182 98.2689 90.6182 99.8182C90.6182 101.424 89.9369 102.758 88.5742 103.822C87.2302 104.886 85.3822 105.418 83.0302 105.418C82.0595 105.418 80.9582 105.278 79.7262 104.998C78.5129 104.7 77.5329 104.326 76.7862 103.878L78.4662 100.042C78.9515 100.341 79.6329 100.621 80.5102 100.882C81.4062 101.125 82.1995 101.246 82.8902 101.246C83.6929 101.246 84.2995 101.088 84.7102 100.77C85.1395 100.453 85.3542 100.117 85.3542 99.7622C85.3542 99.4262 85.0462 99.0622 84.4302 98.6702C83.8142 98.2782 83.1422 97.9049 82.4142 97.5502ZM98.2189 97.5502C96.9496 96.9155 95.6802 96.0942 94.4109 95.0862C93.1416 94.0595 92.5069 92.7342 92.5069 91.1102C92.5256 89.5422 93.1696 88.2449 94.4389 87.2182C95.7082 86.1729 97.4256 85.6502 99.5909 85.6502C100.543 85.6502 101.523 85.7902 102.531 86.0702C103.558 86.3315 104.444 86.7142 105.191 87.2182L103.679 90.6622C102.671 90.3075 101.906 90.0835 101.383 89.9902C100.86 89.8782 100.282 89.8222 99.6469 89.8222C99.0682 89.8222 98.6109 89.9622 98.2749 90.2422C97.9389 90.5035 97.7709 90.8115 97.7709 91.1662C97.7709 91.5769 98.0509 91.9409 98.6109 92.2582C99.1896 92.5569 99.8709 92.9115 100.655 93.3222C101.999 94.0129 103.296 94.8809 104.547 95.9262C105.798 96.9715 106.423 98.2689 106.423 99.8182C106.423 101.424 105.742 102.758 104.379 103.822C103.035 104.886 101.187 105.418 98.8349 105.418C97.8642 105.418 96.7629 105.278 95.5309 104.998C94.3176 104.7 93.3376 104.326 92.5909 103.878L94.2709 100.042C94.7562 100.341 95.4376 100.621 96.3149 100.882C97.2109 101.125 98.0042 101.246 98.6949 101.246C99.4976 101.246 100.104 101.088 100.515 100.77C100.944 100.453 101.159 100.117 101.159 99.7622C101.159 99.4262 100.851 99.0622 100.235 98.6702C99.6189 98.2782 98.9469 97.9049 98.2189 97.5502ZM120.828 97.5222V86.0142H125.924V97.7742C125.924 100.257 125.13 102.161 123.544 103.486C121.976 104.793 119.922 105.446 117.384 105.446C114.845 105.446 112.782 104.793 111.196 103.486C109.628 102.161 108.844 100.257 108.844 97.7742V86.0142H113.94V97.5222C113.94 98.7169 114.257 99.6315 114.892 100.266C115.545 100.882 116.376 101.19 117.384 101.19C118.392 101.19 119.213 100.882 119.848 100.266C120.501 99.6315 120.828 98.7169 120.828 97.5222ZM137.417 90.0182H134.673V95.0582H137.473C138.257 95.0582 138.901 94.8249 139.405 94.3582C139.909 93.8729 140.161 93.2569 140.161 92.5102C140.161 91.6702 139.918 91.0449 139.433 90.6342C138.947 90.2235 138.275 90.0182 137.417 90.0182ZM129.577 105.054V86.0142H137.585C139.694 86.0142 141.523 86.5275 143.073 87.5542C144.641 88.5622 145.425 90.2142 145.425 92.5102C145.425 93.6675 145.182 94.6662 144.697 95.5062C144.23 96.3462 143.614 97.0275 142.849 97.5502L147.049 105.054H141.141L138.061 99.0622H134.673V105.054H129.577ZM149.292 105.054V86.0142H161.92L162.396 90.0182H154.388V93.4902H160.24L160.716 97.4942H154.388V101.05H162.76L163.236 105.054H149.292Z" fill="#118592"/>
<circle cx="95.488" cy="110.337" r="1.64458" fill="#118592"/>
<circle cx="161.271" cy="110.337" r="1.64458" fill="#118592"/>
<path d="M95.4879 110.337H129.476L133.313 115.271L138.795 105.404L141.536 110.337H161.271" stroke="#118592" stroke-width="0.5"/>
</svg>
