<svg width="12" height="14" viewBox="0 0 12 14" fill="none" xmlns="http://www.w3.org/2000/svg">
<circle cx="6" cy="7" r="5.5" stroke="#F41414"/>
<path d="M6.36 4.384L6.24 8.432C6.13867 8.38933 6.04 8.344 5.944 8.296C5.848 8.248 5.752 8.20267 5.656 8.16L5.52 4.384H6.36ZM5.944 9.04C6.07733 9.04 6.18933 9.088 6.28 9.184C6.376 9.27467 6.424 9.38667 6.424 9.52C6.424 9.65333 6.376 9.768 6.28 9.864C6.18933 9.95467 6.07733 10 5.944 10C5.81067 10 5.696 9.95467 5.6 9.864C5.504 9.768 5.456 9.65333 5.456 9.52C5.456 9.38667 5.504 9.27467 5.6 9.184C5.696 9.088 5.81067 9.04 5.944 9.04Z" fill="#F41414"/>
</svg>
