<svg width="222" height="140" viewBox="0 0 222 140" fill="none" xmlns="http://www.w3.org/2000/svg">
<rect width="222" height="140" rx="10" fill="white"/>
<path d="M31.68 58L27.18 51.96L25.84 53.52V58H23.58V44.4H25.84V50.4L31.2 44.1L32.84 45.4L28.66 50.24L34.46 58H31.68ZM37.7795 49.46C38.2062 49.0067 38.7462 48.6467 39.3995 48.38C40.0662 48.1 40.6662 47.96 41.1995 47.96C42.4395 47.96 43.3329 48.3267 43.8795 49.06C44.4395 49.78 44.7195 50.68 44.7195 51.76V58H42.4595V51.9C42.4595 51.2733 42.3062 50.78 41.9995 50.42C41.7062 50.06 41.2595 49.88 40.6595 49.88C40.2729 49.88 39.8462 49.9933 39.3795 50.22C38.9129 50.4333 38.4929 50.7067 38.1195 51.04V58H35.8595V48.3H37.0995L37.7795 49.46ZM51.5644 58.24C50.0577 58.2267 48.8977 57.76 48.0844 56.84C47.271 55.9067 46.8644 54.6667 46.8644 53.12C46.8777 51.6 47.311 50.38 48.1644 49.46C49.0177 48.5267 50.2044 48.0533 51.7244 48.04C53.2844 48.04 54.4844 48.52 55.3244 49.48C56.1644 50.44 56.5844 51.6867 56.5844 53.22C56.571 54.74 56.111 55.96 55.2044 56.88C54.2977 57.7867 53.0844 58.24 51.5644 58.24ZM54.2644 53.22C54.2644 52.2467 54.0577 51.4667 53.6444 50.88C53.2444 50.28 52.6244 49.98 51.7844 49.98C50.9444 49.98 50.3044 50.2533 49.8644 50.8C49.4244 51.3333 49.2044 52.1 49.2044 53.1C49.2044 54.1133 49.391 54.9067 49.7644 55.48C50.1377 56.04 50.7444 56.32 51.5844 56.32C52.4244 56.32 53.0777 56.06 53.5444 55.54C54.011 55.02 54.251 54.2467 54.2644 53.22ZM67.1488 58L64.9488 51.58L62.8888 58H60.8888L57.6688 48.62L59.9888 48.3L61.9288 54.54L63.7888 48.3H66.2288L68.1688 54.54L70.0088 48.3H72.3688L69.1088 58H67.1488ZM80.9734 49.16C81.3868 48.7867 81.8801 48.4933 82.4534 48.28C83.0401 48.0667 83.5734 47.96 84.0534 47.96C85.3068 47.96 86.2001 48.3267 86.7334 49.06C87.2801 49.78 87.5534 50.68 87.5534 51.76V58H85.2934V51.9C85.2934 51.2733 85.1401 50.78 84.8334 50.42C84.5401 50.06 84.0934 49.88 83.4934 49.88C83.1068 49.88 82.6801 49.9933 82.2134 50.22C81.7468 50.4333 81.3334 50.7067 80.9734 51.04V58H78.7334V44.1L80.9734 43.88V49.16ZM94.3964 58.24C92.8897 58.2267 91.7297 57.76 90.9164 56.84C90.1031 55.9067 89.6964 54.6667 89.6964 53.12C89.7097 51.6 90.1431 50.38 90.9964 49.46C91.8497 48.5267 93.0364 48.0533 94.5564 48.04C96.1164 48.04 97.3164 48.52 98.1564 49.48C98.9964 50.44 99.4164 51.6867 99.4164 53.22C99.4031 54.74 98.9431 55.96 98.0364 56.88C97.1297 57.7867 95.9164 58.24 94.3964 58.24ZM97.0964 53.22C97.0964 52.2467 96.8897 51.4667 96.4764 50.88C96.0764 50.28 95.4564 49.98 94.6164 49.98C93.7764 49.98 93.1364 50.2533 92.6964 50.8C92.2564 51.3333 92.0364 52.1 92.0364 53.1C92.0364 54.1133 92.2231 54.9067 92.5964 55.48C92.9697 56.04 93.5764 56.32 94.4164 56.32C95.2564 56.32 95.9097 56.06 96.3764 55.54C96.8431 55.02 97.0831 54.2467 97.0964 53.22ZM109.981 58L107.781 51.58L105.721 58H103.721L100.501 48.62L102.821 48.3L104.761 54.54L106.621 48.3H109.061L111.001 54.54L112.841 48.3H115.201L111.941 58H109.981ZM126.925 57.86C126.725 57.9933 126.445 58.1067 126.085 58.2C125.739 58.3067 125.419 58.36 125.125 58.36C124.045 58.36 123.192 58.08 122.565 57.52C121.939 56.96 121.625 56.1533 121.625 55.1V50.1H120.305V48.36H121.625V46.02L123.885 45.56V48.36H125.645L126.345 50.1H123.885V54.72C123.885 55.2133 123.999 55.6267 124.225 55.96C124.452 56.28 124.805 56.44 125.285 56.44C125.459 56.44 125.625 56.42 125.785 56.38C125.959 56.3267 126.125 56.2667 126.285 56.2L126.925 57.86ZM132.814 58.24C131.308 58.2267 130.148 57.76 129.334 56.84C128.521 55.9067 128.114 54.6667 128.114 53.12C128.128 51.6 128.561 50.38 129.414 49.46C130.268 48.5267 131.454 48.0533 132.974 48.04C134.534 48.04 135.734 48.52 136.574 49.48C137.414 50.44 137.834 51.6867 137.834 53.22C137.821 54.74 137.361 55.96 136.454 56.88C135.548 57.7867 134.334 58.24 132.814 58.24ZM135.514 53.22C135.514 52.2467 135.308 51.4667 134.894 50.88C134.494 50.28 133.874 49.98 133.034 49.98C132.194 49.98 131.554 50.2533 131.114 50.8C130.674 51.3333 130.454 52.1 130.454 53.1C130.454 54.1133 130.641 54.9067 131.014 55.48C131.388 56.04 131.994 56.32 132.834 56.32C133.674 56.32 134.328 56.06 134.794 55.54C135.261 55.02 135.501 54.2467 135.514 53.22ZM29.86 70.7C29.5267 70.46 29.18 70.2667 28.82 70.12C28.46 69.96 28.1133 69.88 27.78 69.88C26.82 69.88 26.1467 70.22 25.76 70.9C25.3867 71.5667 25.2 72.3 25.2 73.1C25.2 73.98 25.38 74.74 25.74 75.38C26.1 76.0067 26.78 76.32 27.78 76.32C28.1133 76.32 28.46 76.2467 28.82 76.1C29.18 75.94 29.5267 75.74 29.86 75.5V70.7ZM32.14 78.24C32.14 79.36 31.76 80.2933 31 81.04C30.24 81.8 29.0533 82.18 27.44 82.18C27.0267 82.18 26.4467 82.0933 25.7 81.92C24.9533 81.7467 24.3333 81.4933 23.84 81.16C23.96 80.8933 24.0733 80.62 24.18 80.34C24.3 80.0733 24.4133 79.8067 24.52 79.54C25.0533 79.7933 25.5267 79.9933 25.94 80.14C26.3667 80.2867 26.8467 80.36 27.38 80.36C28.1667 80.36 28.7733 80.1733 29.2 79.8C29.64 79.4267 29.86 78.9 29.86 78.22V77.4C29.46 77.6533 29.02 77.8533 28.54 78C28.0733 78.16 27.6333 78.24 27.22 78.24C25.8067 78.24 24.7267 77.7533 23.98 76.78C23.2467 75.8067 22.88 74.5867 22.88 73.12C22.88 71.64 23.2667 70.4133 24.04 69.44C24.8133 68.4533 25.9067 67.96 27.32 67.96C27.7867 67.96 28.3067 68.0667 28.88 68.28C29.4667 68.4933 29.9667 68.78 30.38 69.14L30.92 68.3H32.14V78.24ZM43.562 73.76H36.842C36.9354 74.52 37.222 75.14 37.702 75.62C38.182 76.1 38.862 76.34 39.742 76.34C40.2487 76.34 40.6887 76.28 41.062 76.16C41.4354 76.04 41.8354 75.88 42.262 75.68C42.382 75.9467 42.4954 76.22 42.602 76.5C42.722 76.78 42.8354 77.0533 42.942 77.32C42.502 77.64 41.9554 77.8733 41.302 78.02C40.6487 78.1667 40.1154 78.24 39.702 78.24C38.0487 78.24 36.762 77.78 35.842 76.86C34.922 75.9267 34.462 74.6933 34.462 73.16C34.462 71.6267 34.8887 70.3933 35.742 69.46C36.5954 68.5133 37.7554 68.04 39.222 68.04C40.8887 68.04 42.0287 68.62 42.642 69.78C43.2554 70.9267 43.562 72.2533 43.562 73.76ZM41.402 72.24C41.2687 71.52 41.0154 70.9667 40.642 70.58C40.282 70.18 39.7887 69.98 39.162 69.98C38.522 69.98 38.002 70.18 37.602 70.58C37.2154 70.98 36.9754 71.5333 36.882 72.24H41.402ZM51.1833 77.86C50.9833 77.9933 50.7033 78.1067 50.3433 78.2C49.9966 78.3067 49.6766 78.36 49.3833 78.36C48.3033 78.36 47.4499 78.08 46.8233 77.52C46.1966 76.96 45.8833 76.1533 45.8833 75.1V70.1H44.5633V68.36H45.8833V66.02L48.1433 65.56V68.36H49.9033L50.6033 70.1H48.1433V74.72C48.1433 75.2133 48.2566 75.6267 48.4833 75.96C48.7099 76.28 49.0633 76.44 49.5433 76.44C49.7166 76.44 49.8833 76.42 50.0433 76.38C50.2166 76.3267 50.3833 76.2667 50.5433 76.2L51.1833 77.86ZM63.0388 77.86C62.8388 77.9933 62.5588 78.1067 62.1988 78.2C61.8521 78.3067 61.5321 78.36 61.2388 78.36C60.1588 78.36 59.3054 78.08 58.6788 77.52C58.0521 76.96 57.7388 76.1533 57.7388 75.1V70.1H56.4188V68.36H57.7388V66.02L59.9988 65.56V68.36H61.7588L62.4588 70.1H59.9988V74.72C59.9988 75.2133 60.1121 75.6267 60.3388 75.96C60.5654 76.28 60.9188 76.44 61.3988 76.44C61.5721 76.44 61.7388 76.42 61.8988 76.38C62.0721 76.3267 62.2388 76.2667 62.3988 76.2L63.0388 77.86ZM67.0477 69.16C67.461 68.7867 67.9543 68.4933 68.5277 68.28C69.1143 68.0667 69.6477 67.96 70.1277 67.96C71.381 67.96 72.2743 68.3267 72.8077 69.06C73.3543 69.78 73.6277 70.68 73.6277 71.76V78H71.3677V71.9C71.3677 71.2733 71.2143 70.78 70.9077 70.42C70.6143 70.06 70.1677 69.88 69.5677 69.88C69.181 69.88 68.7543 69.9933 68.2877 70.22C67.821 70.4333 67.4077 70.7067 67.0477 71.04V78H64.8077V64.1L67.0477 63.88V69.16ZM84.8706 73.76H78.1506C78.244 74.52 78.5306 75.14 79.0106 75.62C79.4906 76.1 80.1706 76.34 81.0506 76.34C81.5573 76.34 81.9973 76.28 82.3706 76.16C82.744 76.04 83.144 75.88 83.5706 75.68C83.6906 75.9467 83.804 76.22 83.9106 76.5C84.0306 76.78 84.144 77.0533 84.2506 77.32C83.8106 77.64 83.264 77.8733 82.6106 78.02C81.9573 78.1667 81.424 78.24 81.0106 78.24C79.3573 78.24 78.0706 77.78 77.1506 76.86C76.2306 75.9267 75.7706 74.6933 75.7706 73.16C75.7706 71.6267 76.1973 70.3933 77.0506 69.46C77.904 68.5133 79.064 68.04 80.5306 68.04C82.1973 68.04 83.3373 68.62 83.9506 69.78C84.564 70.9267 84.8706 72.2533 84.8706 73.76ZM82.7106 72.24C82.5773 71.52 82.324 70.9667 81.9506 70.58C81.5906 70.18 81.0973 69.98 80.4706 69.98C79.8306 69.98 79.3106 70.18 78.9106 70.58C78.524 70.98 78.284 71.5333 78.1906 72.24H82.7106ZM96.1384 69.96C95.3251 69.96 94.6984 70.2667 94.2584 70.88C93.8318 71.48 93.6184 72.2333 93.6184 73.14C93.6184 74.06 93.8251 74.82 94.2384 75.42C94.6651 76.02 95.2918 76.32 96.1184 76.32C96.6384 76.32 97.0718 76.2667 97.4184 76.16C97.7784 76.04 98.1784 75.8733 98.6184 75.66L99.2584 77.3C98.8318 77.62 98.2984 77.8533 97.6584 78C97.0318 78.16 96.5118 78.24 96.0984 78.24C94.5651 78.24 93.3784 77.7733 92.5384 76.84C91.6984 75.9067 91.2784 74.6733 91.2784 73.14C91.2918 71.62 91.7184 70.3933 92.5584 69.46C93.4118 68.5133 94.6051 68.04 96.1384 68.04C96.5384 68.04 97.0518 68.1267 97.6784 68.3C98.3051 68.46 98.8451 68.7 99.2984 69.02L98.6384 70.64C98.1984 70.44 97.7984 70.28 97.4384 70.16C97.0918 70.0267 96.6584 69.96 96.1384 69.96ZM101.448 78V64.1L103.708 63.88V78H101.448ZM108.085 75.16C108.085 75.48 108.211 75.78 108.465 76.06C108.718 76.3267 109.071 76.46 109.525 76.46C109.938 76.46 110.345 76.36 110.745 76.16C111.158 75.9467 111.531 75.6733 111.865 75.34V73.62H109.705C109.171 73.62 108.765 73.7733 108.485 74.08C108.218 74.3867 108.085 74.7467 108.085 75.16ZM106.665 68.92C107.038 68.6667 107.591 68.46 108.325 68.3C109.058 68.1267 109.631 68.04 110.045 68.04C111.191 68.04 112.158 68.3667 112.945 69.02C113.731 69.6733 114.125 70.5067 114.125 71.52V78H112.905C112.811 77.8667 112.718 77.7267 112.625 77.58C112.531 77.42 112.438 77.2733 112.345 77.14C111.998 77.4333 111.571 77.6933 111.065 77.92C110.558 78.1333 110.058 78.24 109.565 78.24C108.405 78.24 107.538 77.9533 106.965 77.38C106.405 76.8067 106.125 76.0667 106.125 75.16C106.125 74.1733 106.458 73.42 107.125 72.9C107.791 72.3667 108.665 72.1 109.745 72.1H111.845C111.805 71.5267 111.658 71.0533 111.405 70.68C111.151 70.2933 110.711 70.1 110.085 70.1C109.578 70.1 109.071 70.1667 108.565 70.3C108.071 70.4333 107.645 70.5867 107.285 70.76C107.178 70.4533 107.071 70.1467 106.965 69.84C106.858 69.5333 106.758 69.2267 106.665 68.92ZM117.879 66.74C117.506 66.74 117.192 66.6133 116.939 66.36C116.686 66.1067 116.559 65.7933 116.559 65.42C116.546 65.0467 116.666 64.7333 116.919 64.48C117.186 64.2133 117.506 64.08 117.879 64.08C118.252 64.08 118.566 64.2133 118.819 64.48C119.086 64.7333 119.219 65.0467 119.219 65.42C119.219 65.7933 119.086 66.1067 118.819 66.36C118.566 66.6133 118.252 66.74 117.879 66.74ZM116.739 78V68.3H119.019V78H116.739ZM129.779 69.5C130.192 69.0467 130.732 68.68 131.399 68.4C132.066 68.1067 132.672 67.96 133.219 67.96C134.472 67.96 135.372 68.3267 135.919 69.06C136.466 69.78 136.739 70.68 136.739 71.76V78H134.459V71.9C134.459 71.2733 134.306 70.78 133.999 70.42C133.706 70.06 133.259 69.88 132.659 69.88C132.272 69.88 131.859 69.9867 131.419 70.2C130.979 70.4133 130.579 70.68 130.219 71C130.232 71.12 130.246 71.2467 130.259 71.38C130.272 71.5 130.279 71.6267 130.279 71.76V78H127.999V71.9C127.999 71.2733 127.846 70.78 127.539 70.42C127.246 70.06 126.806 69.88 126.219 69.88C125.846 69.88 125.466 69.9667 125.079 70.14C124.692 70.3133 124.326 70.5467 123.979 70.84V78H121.719V68.3H122.959L123.539 69.26C123.966 68.86 124.486 68.5467 125.099 68.32C125.712 68.08 126.266 67.96 126.759 67.96C127.506 67.96 128.126 68.1 128.619 68.38C129.126 68.6467 129.512 69.02 129.779 69.5ZM24.94 95.16C24.94 95.48 25.0667 95.78 25.32 96.06C25.5733 96.3267 25.9267 96.46 26.38 96.46C26.7933 96.46 27.2 96.36 27.6 96.16C28.0133 95.9467 28.3867 95.6733 28.72 95.34V93.62H26.56C26.0267 93.62 25.62 93.7733 25.34 94.08C25.0733 94.3867 24.94 94.7467 24.94 95.16ZM23.52 88.92C23.8933 88.6667 24.4467 88.46 25.18 88.3C25.9133 88.1267 26.4867 88.04 26.9 88.04C28.0467 88.04 29.0133 88.3667 29.8 89.02C30.5867 89.6733 30.98 90.5067 30.98 91.52V98H29.76C29.6667 97.8667 29.5733 97.7267 29.48 97.58C29.3867 97.42 29.2933 97.2733 29.2 97.14C28.8533 97.4333 28.4267 97.6933 27.92 97.92C27.4133 98.1333 26.9133 98.24 26.42 98.24C25.26 98.24 24.3933 97.9533 23.82 97.38C23.26 96.8067 22.98 96.0667 22.98 95.16C22.98 94.1733 23.3133 93.42 23.98 92.9C24.6467 92.3667 25.52 92.1 26.6 92.1H28.7C28.66 91.5267 28.5133 91.0533 28.26 90.68C28.0067 90.2933 27.5667 90.1 26.94 90.1C26.4333 90.1 25.9267 90.1667 25.42 90.3C24.9267 90.4333 24.5 90.5867 24.14 90.76C24.0333 90.4533 23.9267 90.1467 23.82 89.84C23.7133 89.5333 23.6133 89.2267 23.52 88.92ZM39.2144 90.64C38.801 90.44 38.3877 90.28 37.9744 90.16C37.5744 90.0267 37.1277 89.96 36.6344 89.96C36.221 89.96 35.8944 90.0467 35.6544 90.22C35.4144 90.38 35.2944 90.6067 35.2944 90.9C35.2944 91.1267 35.4344 91.3333 35.7144 91.52C36.0077 91.6933 36.421 91.88 36.9544 92.08C37.7544 92.36 38.501 92.76 39.1944 93.28C39.8877 93.7867 40.2344 94.4533 40.2344 95.28C40.2344 96.2133 39.8944 96.94 39.2144 97.46C38.5477 97.98 37.561 98.24 36.2544 98.24C35.841 98.24 35.301 98.1667 34.6344 98.02C33.9677 97.8733 33.4144 97.6333 32.9744 97.3L33.6544 95.66C34.0944 95.8733 34.5344 96.04 34.9744 96.16C35.4144 96.2667 35.8344 96.32 36.2344 96.32C36.7944 96.32 37.221 96.24 37.5144 96.08C37.821 95.9067 37.9744 95.6733 37.9744 95.38C37.9744 95.06 37.8144 94.78 37.4944 94.54C37.1877 94.2867 36.741 94.0667 36.1544 93.88C35.3944 93.6267 34.6677 93.2733 33.9744 92.82C33.2944 92.3533 32.9544 91.7267 32.9544 90.94C32.9544 90.0333 33.2877 89.3267 33.9544 88.82C34.621 88.3 35.5277 88.04 36.6744 88.04C37.0877 88.04 37.6144 88.1267 38.2544 88.3C38.8944 88.46 39.441 88.6933 39.8944 89L39.2144 90.64ZM47.9448 90.64C47.5315 90.44 47.1182 90.28 46.7048 90.16C46.3048 90.0267 45.8582 89.96 45.3648 89.96C44.9515 89.96 44.6248 90.0467 44.3848 90.22C44.1448 90.38 44.0248 90.6067 44.0248 90.9C44.0248 91.1267 44.1648 91.3333 44.4448 91.52C44.7382 91.6933 45.1515 91.88 45.6848 92.08C46.4848 92.36 47.2315 92.76 47.9248 93.28C48.6182 93.7867 48.9648 94.4533 48.9648 95.28C48.9648 96.2133 48.6248 96.94 47.9448 97.46C47.2782 97.98 46.2915 98.24 44.9848 98.24C44.5715 98.24 44.0315 98.1667 43.3648 98.02C42.6982 97.8733 42.1448 97.6333 41.7048 97.3L42.3848 95.66C42.8248 95.8733 43.2648 96.04 43.7048 96.16C44.1448 96.2667 44.5648 96.32 44.9648 96.32C45.5248 96.32 45.9515 96.24 46.2448 96.08C46.5515 95.9067 46.7048 95.6733 46.7048 95.38C46.7048 95.06 46.5448 94.78 46.2248 94.54C45.9182 94.2867 45.4715 94.0667 44.8848 93.88C44.1248 93.6267 43.3982 93.2733 42.7048 92.82C42.0248 92.3533 41.6848 91.7267 41.6848 90.94C41.6848 90.0333 42.0182 89.3267 42.6848 88.82C43.3515 88.3 44.2582 88.04 45.4048 88.04C45.8182 88.04 46.3448 88.1267 46.9848 88.3C47.6248 88.46 48.1715 88.6933 48.6248 89L47.9448 90.64ZM52.1953 86.74C51.822 86.74 51.5086 86.6133 51.2553 86.36C51.002 86.1067 50.8753 85.7933 50.8753 85.42C50.862 85.0467 50.982 84.7333 51.2353 84.48C51.502 84.2133 51.822 84.08 52.1953 84.08C52.5686 84.08 52.882 84.2133 53.1353 84.48C53.402 84.7333 53.5353 85.0467 53.5353 85.42C53.5353 85.7933 53.402 86.1067 53.1353 86.36C52.882 86.6133 52.5686 86.74 52.1953 86.74ZM51.0553 98V88.3H53.3353V98H51.0553ZM61.6753 90.64C61.262 90.44 60.8486 90.28 60.4353 90.16C60.0353 90.0267 59.5886 89.96 59.0953 89.96C58.682 89.96 58.3553 90.0467 58.1153 90.22C57.8753 90.38 57.7553 90.6067 57.7553 90.9C57.7553 91.1267 57.8953 91.3333 58.1753 91.52C58.4686 91.6933 58.882 91.88 59.4153 92.08C60.2153 92.36 60.962 92.76 61.6553 93.28C62.3486 93.7867 62.6953 94.4533 62.6953 95.28C62.6953 96.2133 62.3553 96.94 61.6753 97.46C61.0086 97.98 60.022 98.24 58.7153 98.24C58.302 98.24 57.762 98.1667 57.0953 98.02C56.4286 97.8733 55.8753 97.6333 55.4353 97.3L56.1153 95.66C56.5553 95.8733 56.9953 96.04 57.4353 96.16C57.8753 96.2667 58.2953 96.32 58.6953 96.32C59.2553 96.32 59.682 96.24 59.9753 96.08C60.282 95.9067 60.4353 95.6733 60.4353 95.38C60.4353 95.06 60.2753 94.78 59.9553 94.54C59.6486 94.2867 59.202 94.0667 58.6153 93.88C57.8553 93.6267 57.1286 93.2733 56.4353 92.82C55.7553 92.3533 55.4153 91.7267 55.4153 90.94C55.4153 90.0333 55.7486 89.3267 56.4153 88.82C57.082 88.3 57.9886 88.04 59.1353 88.04C59.5486 88.04 60.0753 88.1267 60.7153 88.3C61.3553 88.46 61.902 88.6933 62.3553 89L61.6753 90.64ZM70.2458 97.86C70.0458 97.9933 69.7658 98.1067 69.4058 98.2C69.0591 98.3067 68.7391 98.36 68.4458 98.36C67.3658 98.36 66.5124 98.08 65.8858 97.52C65.2591 96.96 64.9458 96.1533 64.9458 95.1V90.1H63.6258V88.36H64.9458V86.02L67.2058 85.56V88.36H68.9658L69.6658 90.1H67.2058V94.72C67.2058 95.2133 67.3191 95.6267 67.5458 95.96C67.7724 96.28 68.1258 96.44 68.6058 96.44C68.7791 96.44 68.9458 96.42 69.1058 96.38C69.2791 96.3267 69.4458 96.2667 69.6058 96.2L70.2458 97.86ZM73.4947 95.16C73.4947 95.48 73.6214 95.78 73.8747 96.06C74.128 96.3267 74.4814 96.46 74.9347 96.46C75.348 96.46 75.7547 96.36 76.1547 96.16C76.568 95.9467 76.9414 95.6733 77.2747 95.34V93.62H75.1147C74.5814 93.62 74.1747 93.7733 73.8947 94.08C73.628 94.3867 73.4947 94.7467 73.4947 95.16ZM72.0747 88.92C72.448 88.6667 73.0014 88.46 73.7347 88.3C74.468 88.1267 75.0414 88.04 75.4547 88.04C76.6014 88.04 77.568 88.3667 78.3547 89.02C79.1414 89.6733 79.5347 90.5067 79.5347 91.52V98H78.3147C78.2214 97.8667 78.128 97.7267 78.0347 97.58C77.9414 97.42 77.848 97.2733 77.7547 97.14C77.408 97.4333 76.9814 97.6933 76.4747 97.92C75.968 98.1333 75.468 98.24 74.9747 98.24C73.8147 98.24 72.948 97.9533 72.3747 97.38C71.8147 96.8067 71.5347 96.0667 71.5347 95.16C71.5347 94.1733 71.868 93.42 72.5347 92.9C73.2014 92.3667 74.0747 92.1 75.1547 92.1H77.2547C77.2147 91.5267 77.068 91.0533 76.8147 90.68C76.5614 90.2933 76.1214 90.1 75.4947 90.1C74.988 90.1 74.4814 90.1667 73.9747 90.3C73.4814 90.4333 73.0547 90.5867 72.6947 90.76C72.588 90.4533 72.4814 90.1467 72.3747 89.84C72.268 89.5333 72.168 89.2267 72.0747 88.92ZM84.0491 89.46C84.4757 89.0067 85.0157 88.6467 85.6691 88.38C86.3357 88.1 86.9357 87.96 87.4691 87.96C88.7091 87.96 89.6024 88.3267 90.1491 89.06C90.7091 89.78 90.9891 90.68 90.9891 91.76V98H88.7291V91.9C88.7291 91.2733 88.5757 90.78 88.2691 90.42C87.9757 90.06 87.5291 89.88 86.9291 89.88C86.5424 89.88 86.1157 89.9933 85.6491 90.22C85.1824 90.4333 84.7624 90.7067 84.3891 91.04V98H82.1291V88.3H83.3691L84.0491 89.46ZM97.9939 89.96C97.1806 89.96 96.5539 90.2667 96.1139 90.88C95.6872 91.48 95.4739 92.2333 95.4739 93.14C95.4739 94.06 95.6806 94.82 96.0939 95.42C96.5206 96.02 97.1472 96.32 97.9739 96.32C98.4939 96.32 98.9272 96.2667 99.2739 96.16C99.6339 96.04 100.034 95.8733 100.474 95.66L101.114 97.3C100.687 97.62 100.154 97.8533 99.5139 98C98.8872 98.16 98.3672 98.24 97.9539 98.24C96.4206 98.24 95.2339 97.7733 94.3939 96.84C93.5539 95.9067 93.1339 94.6733 93.1339 93.14C93.1472 91.62 93.5739 90.3933 94.4139 89.46C95.2672 88.5133 96.4606 88.04 97.9939 88.04C98.3939 88.04 98.9072 88.1267 99.5339 88.3C100.161 88.46 100.701 88.7 101.154 89.02L100.494 90.64C100.054 90.44 99.6539 90.28 99.2939 90.16C98.9472 90.0267 98.5139 89.96 97.9939 89.96ZM111.843 93.76H105.123C105.217 94.52 105.503 95.14 105.983 95.62C106.463 96.1 107.143 96.34 108.023 96.34C108.53 96.34 108.97 96.28 109.343 96.16C109.717 96.04 110.117 95.88 110.543 95.68C110.663 95.9467 110.777 96.22 110.883 96.5C111.003 96.78 111.117 97.0533 111.223 97.32C110.783 97.64 110.237 97.8733 109.583 98.02C108.93 98.1667 108.397 98.24 107.983 98.24C106.33 98.24 105.043 97.78 104.123 96.86C103.203 95.9267 102.743 94.6933 102.743 93.16C102.743 91.6267 103.17 90.3933 104.023 89.46C104.877 88.5133 106.037 88.04 107.503 88.04C109.17 88.04 110.31 88.62 110.923 89.78C111.537 90.9267 111.843 92.2533 111.843 93.76ZM109.683 92.24C109.55 91.52 109.297 90.9667 108.923 90.58C108.563 90.18 108.07 89.98 107.443 89.98C106.803 89.98 106.283 90.18 105.883 90.58C105.497 90.98 105.257 91.5333 105.163 92.24H109.683Z" fill="#118592"/>
</svg>
