<svg width="60" height="60" viewBox="0 0 60 60" fill="none" xmlns="http://www.w3.org/2000/svg">
<circle cx="30" cy="30" r="29.5" fill="white" stroke="#118592"/>
<path d="M42.4395 35.3116C40.5758 35.3116 38.7728 35.0065 37.091 34.4573C36.5607 34.2743 35.9698 34.4116 35.5607 34.8235L33.1819 37.8287C28.894 35.7693 24.8789 31.8792 22.7425 27.4095L25.697 24.8771C26.1061 24.45 26.2274 23.855 26.0607 23.3211C25.5001 21.6278 25.2122 19.8124 25.2122 17.936C25.2122 17.1123 24.5304 16.4258 23.7122 16.4258H18.4698C17.6516 16.4258 16.6667 16.7919 16.6667 17.936C16.6667 32.108 28.3789 43.885 42.4395 43.885C43.5152 43.885 43.9395 42.9239 43.9395 42.0849V36.8219C43.9395 35.9981 43.2577 35.3116 42.4395 35.3116Z" fill="#118592"/>
</svg>
