<svg width="36" height="36" viewBox="0 0 36 36" fill="none" xmlns="http://www.w3.org/2000/svg">
<circle cx="18" cy="18" r="17.5" fill="#118592" stroke="#118592"/>
<path d="M25.4636 21.1872C24.3455 21.1872 23.2636 21.0042 22.2545 20.6746C21.9364 20.5648 21.5818 20.6472 21.3364 20.8943L19.9091 22.6975C17.3364 21.4618 14.9273 19.1278 13.6455 16.4459L15.4182 14.9265C15.6636 14.6702 15.7364 14.3133 15.6364 13.9929C15.3 12.9769 15.1273 11.8877 15.1273 10.7619C15.1273 10.2676 14.7182 9.85571 14.2273 9.85571H11.0818C10.5909 9.85571 10 10.0754 10 10.7619C10 19.2651 17.0273 26.3312 25.4636 26.3312C26.1091 26.3312 26.3636 25.7546 26.3636 25.2512V22.0934C26.3636 21.5991 25.9545 21.1872 25.4636 21.1872Z" fill="#FCFCFC"/>
</svg>
