<svg width="342" height="43" viewBox="0 0 342 43" fill="none" xmlns="http://www.w3.org/2000/svg">
<path d="M1.55183 37V28.84H4.37183C5.63583 28.84 6.55583 29.228 7.13183 30.004C7.71583 30.772 8.00783 31.728 8.00783 32.872C8.00783 34.064 7.69183 35.052 7.05983 35.836C6.42783 36.612 5.51583 37 4.32383 37H1.55183ZM4.41983 29.824H2.70383V36.04H4.32383C5.07583 36.04 5.68383 35.772 6.14783 35.236C6.61183 34.7 6.84383 33.916 6.84383 32.884C6.84383 31.98 6.64783 31.244 6.25583 30.676C5.86383 30.108 5.25183 29.824 4.41983 29.824ZM14.6947 34.348H10.5667C10.6067 34.884 10.7747 35.324 11.0707 35.668C11.3667 36.012 11.8107 36.184 12.4027 36.184C12.7467 36.184 13.0347 36.148 13.2667 36.076C13.5067 35.996 13.7467 35.9 13.9867 35.788L14.3467 36.628C14.0907 36.804 13.7627 36.932 13.3627 37.012C12.9707 37.1 12.6507 37.144 12.4027 37.144C11.4267 37.144 10.6747 36.864 10.1467 36.304C9.62673 35.736 9.36673 34.996 9.36673 34.084C9.36673 33.18 9.61073 32.444 10.0987 31.876C10.5947 31.308 11.2787 31.024 12.1507 31.024C13.0947 31.024 13.7547 31.356 14.1307 32.02C14.5067 32.684 14.6947 33.46 14.6947 34.348ZM13.5787 33.568C13.5067 33.088 13.3547 32.708 13.1227 32.428C12.8907 32.148 12.5547 32.008 12.1147 32.008C11.6667 32.008 11.3147 32.152 11.0587 32.44C10.8027 32.72 10.6467 33.096 10.5907 33.568H13.5787ZM19.0292 36.952C18.9252 37.008 18.7772 37.064 18.5852 37.12C18.4012 37.176 18.2212 37.204 18.0452 37.204C17.4772 37.204 17.0252 37.048 16.6892 36.736C16.3532 36.424 16.1852 35.972 16.1852 35.38V32.128H15.3692L15.3572 31.252H16.1852V29.8L17.3372 29.536V31.252H18.3932L18.7532 32.128H17.3372V35.2C17.3372 35.496 17.4012 35.74 17.5292 35.932C17.6652 36.116 17.8772 36.208 18.1652 36.208C18.2612 36.208 18.3572 36.196 18.4532 36.172C18.5572 36.14 18.6492 36.108 18.7292 36.076L19.0292 36.952ZM20.9113 35.32C20.9113 35.544 20.9913 35.752 21.1513 35.944C21.3113 36.136 21.5553 36.232 21.8833 36.232C22.1793 36.232 22.4553 36.16 22.7113 36.016C22.9753 35.872 23.2073 35.688 23.4073 35.464V34.288H21.9913C21.6393 34.288 21.3713 34.392 21.1873 34.6C21.0033 34.808 20.9113 35.048 20.9113 35.32ZM20.2273 31.54C20.4513 31.388 20.7753 31.264 21.1993 31.168C21.6233 31.072 21.9593 31.024 22.2073 31.024C22.8793 31.024 23.4393 31.212 23.8873 31.588C24.3353 31.964 24.5593 32.452 24.5593 33.052V37H23.9113C23.8553 36.912 23.8033 36.82 23.7553 36.724C23.7073 36.628 23.6593 36.536 23.6113 36.448C23.4113 36.624 23.1553 36.784 22.8433 36.928C22.5313 37.072 22.2193 37.144 21.9073 37.144C21.2193 37.144 20.7073 36.972 20.3713 36.628C20.0433 36.284 19.8793 35.848 19.8793 35.32C19.8793 34.736 20.0753 34.292 20.4673 33.988C20.8673 33.676 21.3833 33.52 22.0153 33.52H23.3953C23.3953 33.12 23.3153 32.776 23.1553 32.488C22.9953 32.2 22.6873 32.056 22.2313 32.056C21.8873 32.056 21.5753 32.1 21.2953 32.188C21.0153 32.268 20.7673 32.356 20.5513 32.452L20.2273 31.54ZM26.837 30.136C26.637 30.136 26.469 30.068 26.333 29.932C26.197 29.788 26.129 29.616 26.129 29.416C26.121 29.216 26.185 29.048 26.321 28.912C26.465 28.768 26.637 28.696 26.837 28.696C27.037 28.696 27.209 28.768 27.353 28.912C27.497 29.048 27.569 29.216 27.569 29.416C27.569 29.616 27.497 29.788 27.353 29.932C27.209 30.068 27.037 30.136 26.837 30.136ZM26.261 37V31.18H27.425V37H26.261ZM29.2147 37V28.66L30.3667 28.528V37H29.2147ZM35.4913 32.404C35.2673 32.3 35.0313 32.208 34.7833 32.128C34.5433 32.048 34.2673 32.008 33.9553 32.008C33.6513 32.008 33.4073 32.072 33.2233 32.2C33.0473 32.32 32.9593 32.484 32.9593 32.692C32.9673 32.868 33.0713 33.024 33.2713 33.16C33.4793 33.288 33.7593 33.412 34.1113 33.532C34.5913 33.708 35.0393 33.948 35.4553 34.252C35.8713 34.548 36.0793 34.936 36.0793 35.416C36.0793 35.96 35.8753 36.388 35.4673 36.7C35.0673 37.004 34.4833 37.156 33.7153 37.156C33.4673 37.156 33.1473 37.112 32.7553 37.024C32.3633 36.936 32.0433 36.804 31.7953 36.628L32.1553 35.776C32.4033 35.896 32.6593 35.992 32.9233 36.064C33.1873 36.136 33.4513 36.172 33.7153 36.172C34.0993 36.172 34.3953 36.112 34.6033 35.992C34.8193 35.872 34.9273 35.7 34.9273 35.476C34.9273 35.252 34.8113 35.06 34.5793 34.9C34.3553 34.732 34.0553 34.588 33.6793 34.468C33.2233 34.316 32.7913 34.104 32.3833 33.832C31.9753 33.56 31.7713 33.188 31.7713 32.716C31.7713 32.188 31.9673 31.776 32.3593 31.48C32.7593 31.176 33.2993 31.024 33.9793 31.024C34.2273 31.024 34.5393 31.072 34.9153 31.168C35.2913 31.264 35.6033 31.4 35.8513 31.576L35.4913 32.404Z" fill="#7B7E84"/>
<path d="M99.743 34.384L97.487 31.228V37H96.335V28.84H97.043L99.911 32.872L102.635 28.84H103.355V37H102.191V31.336L100.163 34.324L99.743 34.384ZM110.38 34.348H106.252C106.292 34.884 106.46 35.324 106.756 35.668C107.052 36.012 107.496 36.184 108.088 36.184C108.432 36.184 108.72 36.148 108.952 36.076C109.192 35.996 109.432 35.9 109.672 35.788L110.032 36.628C109.776 36.804 109.448 36.932 109.048 37.012C108.656 37.1 108.336 37.144 108.088 37.144C107.112 37.144 106.36 36.864 105.832 36.304C105.312 35.736 105.052 34.996 105.052 34.084C105.052 33.18 105.296 32.444 105.784 31.876C106.28 31.308 106.964 31.024 107.836 31.024C108.78 31.024 109.44 31.356 109.816 32.02C110.192 32.684 110.38 33.46 110.38 34.348ZM109.264 33.568C109.192 33.088 109.04 32.708 108.808 32.428C108.576 32.148 108.24 32.008 107.8 32.008C107.352 32.008 107 32.152 106.744 32.44C106.488 32.72 106.332 33.096 106.276 33.568H109.264ZM116.407 31.936C116.655 31.664 116.971 31.44 117.355 31.264C117.747 31.08 118.115 30.988 118.459 30.988C119.171 30.988 119.687 31.196 120.007 31.612C120.335 32.02 120.499 32.536 120.499 33.16V37H119.335V33.268C119.335 32.876 119.239 32.564 119.047 32.332C118.863 32.1 118.583 31.98 118.207 31.972C117.959 31.972 117.695 32.04 117.415 32.176C117.135 32.312 116.879 32.492 116.647 32.716C116.655 32.796 116.659 32.872 116.659 32.944C116.667 33.008 116.671 33.08 116.671 33.16V37H115.507V33.268C115.507 32.876 115.415 32.564 115.231 32.332C115.047 32.1 114.771 31.98 114.403 31.972C114.163 31.972 113.911 32.032 113.647 32.152C113.383 32.272 113.139 32.444 112.915 32.668V37H111.763V31.18H112.411L112.723 31.804C112.979 31.564 113.283 31.368 113.635 31.216C113.995 31.064 114.331 30.988 114.643 30.988C115.083 30.988 115.447 31.076 115.735 31.252C116.031 31.42 116.255 31.648 116.407 31.936ZM122.217 37V28.66L123.369 28.528V31.516C123.601 31.364 123.853 31.24 124.125 31.144C124.397 31.04 124.653 30.988 124.893 30.988C125.749 30.988 126.393 31.284 126.825 31.876C127.257 32.46 127.473 33.192 127.473 34.072C127.473 34.952 127.253 35.684 126.813 36.268C126.381 36.852 125.741 37.144 124.893 37.144C124.621 37.144 124.325 37.088 124.005 36.976C123.685 36.856 123.397 36.696 123.141 36.496L122.865 37H122.217ZM123.369 35.656C123.569 35.816 123.785 35.944 124.017 36.04C124.249 36.128 124.465 36.172 124.665 36.172C125.265 36.172 125.685 35.964 125.925 35.548C126.173 35.124 126.297 34.636 126.297 34.084C126.297 33.5 126.181 33.004 125.949 32.596C125.717 32.18 125.289 31.972 124.665 31.972C124.465 31.972 124.249 32.02 124.017 32.116C123.785 32.204 123.569 32.332 123.369 32.5V35.656ZM133.923 34.348H129.795C129.835 34.884 130.003 35.324 130.299 35.668C130.595 36.012 131.039 36.184 131.631 36.184C131.975 36.184 132.263 36.148 132.495 36.076C132.735 35.996 132.975 35.9 133.215 35.788L133.575 36.628C133.319 36.804 132.991 36.932 132.591 37.012C132.199 37.1 131.879 37.144 131.631 37.144C130.655 37.144 129.903 36.864 129.375 36.304C128.855 35.736 128.595 34.996 128.595 34.084C128.595 33.18 128.839 32.444 129.327 31.876C129.823 31.308 130.507 31.024 131.379 31.024C132.323 31.024 132.983 31.356 133.359 32.02C133.735 32.684 133.923 33.46 133.923 34.348ZM132.807 33.568C132.735 33.088 132.583 32.708 132.351 32.428C132.119 32.148 131.783 32.008 131.343 32.008C130.895 32.008 130.543 32.152 130.287 32.44C130.031 32.72 129.875 33.096 129.819 33.568H132.807ZM135.306 37V31.18H135.954L136.326 32.008C136.55 31.816 136.83 31.632 137.166 31.456C137.51 31.272 137.838 31.18 138.15 31.18L138.402 32.104C138.082 32.104 137.746 32.192 137.394 32.368C137.05 32.536 136.738 32.756 136.458 33.028V37H135.306ZM142.708 32.404C142.484 32.3 142.248 32.208 142 32.128C141.76 32.048 141.484 32.008 141.172 32.008C140.868 32.008 140.624 32.072 140.44 32.2C140.264 32.32 140.176 32.484 140.176 32.692C140.184 32.868 140.288 33.024 140.488 33.16C140.696 33.288 140.976 33.412 141.328 33.532C141.808 33.708 142.256 33.948 142.672 34.252C143.088 34.548 143.296 34.936 143.296 35.416C143.296 35.96 143.092 36.388 142.684 36.7C142.284 37.004 141.7 37.156 140.932 37.156C140.684 37.156 140.364 37.112 139.972 37.024C139.58 36.936 139.26 36.804 139.012 36.628L139.372 35.776C139.62 35.896 139.876 35.992 140.14 36.064C140.404 36.136 140.668 36.172 140.932 36.172C141.316 36.172 141.612 36.112 141.82 35.992C142.036 35.872 142.144 35.7 142.144 35.476C142.144 35.252 142.028 35.06 141.796 34.9C141.572 34.732 141.272 34.588 140.896 34.468C140.44 34.316 140.008 34.104 139.6 33.832C139.192 33.56 138.988 33.188 138.988 32.716C138.988 32.188 139.184 31.776 139.576 31.48C139.976 31.176 140.516 31.024 141.196 31.024C141.444 31.024 141.756 31.072 142.132 31.168C142.508 31.264 142.82 31.4 143.068 31.576L142.708 32.404Z" fill="#7B7E84"/>
<path d="M187.948 29.812H186.772V32.8H187.888C188.424 32.8 188.88 32.692 189.256 32.476C189.64 32.252 189.836 31.864 189.844 31.312C189.844 30.736 189.668 30.344 189.316 30.136C188.972 29.92 188.516 29.812 187.948 29.812ZM190.42 37L188.596 33.7C188.468 33.708 188.34 33.716 188.212 33.724C188.092 33.732 187.968 33.736 187.84 33.736H186.772V37H185.62V28.84H187.96C188.824 28.84 189.552 29.032 190.144 29.416C190.744 29.792 191.044 30.408 191.044 31.264C191.036 31.8 190.9 32.248 190.636 32.608C190.372 32.96 190.032 33.224 189.616 33.4L191.668 37H190.42ZM197.943 34.348H193.815C193.855 34.884 194.023 35.324 194.319 35.668C194.615 36.012 195.059 36.184 195.651 36.184C195.995 36.184 196.283 36.148 196.515 36.076C196.755 35.996 196.995 35.9 197.235 35.788L197.595 36.628C197.339 36.804 197.011 36.932 196.611 37.012C196.219 37.1 195.899 37.144 195.651 37.144C194.675 37.144 193.923 36.864 193.395 36.304C192.875 35.736 192.615 34.996 192.615 34.084C192.615 33.18 192.859 32.444 193.347 31.876C193.843 31.308 194.527 31.024 195.399 31.024C196.343 31.024 197.003 31.356 197.379 32.02C197.755 32.684 197.943 33.46 197.943 34.348ZM196.827 33.568C196.755 33.088 196.603 32.708 196.371 32.428C196.139 32.148 195.803 32.008 195.363 32.008C194.915 32.008 194.563 32.152 194.307 32.44C194.051 32.72 193.895 33.096 193.839 33.568H196.827ZM200.837 37L198.605 31.348L199.781 31.18L201.389 35.38L202.925 31.18H204.113L201.905 37H200.837ZM205.726 30.136C205.526 30.136 205.358 30.068 205.222 29.932C205.086 29.788 205.018 29.616 205.018 29.416C205.01 29.216 205.074 29.048 205.21 28.912C205.354 28.768 205.526 28.696 205.726 28.696C205.926 28.696 206.098 28.768 206.242 28.912C206.386 29.048 206.458 29.216 206.458 29.416C206.458 29.616 206.386 29.788 206.242 29.932C206.098 30.068 205.926 30.136 205.726 30.136ZM205.15 37V31.18H206.314V37H205.15ZM213.083 34.348H208.955C208.995 34.884 209.163 35.324 209.459 35.668C209.755 36.012 210.199 36.184 210.791 36.184C211.135 36.184 211.423 36.148 211.655 36.076C211.895 35.996 212.135 35.9 212.375 35.788L212.735 36.628C212.479 36.804 212.151 36.932 211.751 37.012C211.359 37.1 211.039 37.144 210.791 37.144C209.815 37.144 209.063 36.864 208.535 36.304C208.015 35.736 207.755 34.996 207.755 34.084C207.755 33.18 207.999 32.444 208.487 31.876C208.983 31.308 209.667 31.024 210.539 31.024C211.483 31.024 212.143 31.356 212.519 32.02C212.895 32.684 213.083 33.46 213.083 34.348ZM211.967 33.568C211.895 33.088 211.743 32.708 211.511 32.428C211.279 32.148 210.943 32.008 210.503 32.008C210.055 32.008 209.703 32.152 209.447 32.44C209.191 32.72 209.035 33.096 208.979 33.568H211.967ZM219.494 37L218.09 32.86L216.758 37H215.702L213.746 31.348L214.922 31.18L216.242 35.284L217.502 31.18H218.714L220.034 35.284L221.294 31.18H222.482L220.55 37H219.494ZM227.285 34.42C227.285 35.02 227.485 35.456 227.885 35.728C228.285 36 228.729 36.136 229.217 36.136C229.569 36.136 229.889 36.08 230.177 35.968C230.465 35.848 230.713 35.684 230.921 35.476L228.569 33.328L228.029 32.824C227.797 33 227.617 33.228 227.489 33.508C227.361 33.78 227.293 34.084 227.285 34.42ZM230.969 30.1C230.745 29.996 230.513 29.896 230.273 29.8C230.033 29.696 229.725 29.644 229.349 29.644C228.973 29.644 228.677 29.76 228.461 29.992C228.253 30.224 228.149 30.488 228.149 30.784C228.149 31.12 228.241 31.416 228.425 31.672C228.617 31.92 228.901 32.216 229.277 32.56L231.497 34.624C231.625 34.352 231.725 34.052 231.797 33.724C231.877 33.388 231.929 33.032 231.953 32.656L232.937 33.04C232.913 33.488 232.853 33.912 232.757 34.312C232.661 34.704 232.529 35.064 232.361 35.392L233.333 36.268L232.685 37.096L231.737 36.22C231.441 36.516 231.085 36.744 230.669 36.904C230.253 37.064 229.769 37.144 229.217 37.144C228.353 37.136 227.617 36.908 227.009 36.46C226.401 36.004 226.097 35.332 226.097 34.444C226.105 33.956 226.221 33.5 226.445 33.076C226.677 32.652 226.977 32.308 227.345 32.044C227.233 31.876 227.145 31.696 227.081 31.504C227.017 31.312 226.985 31.096 226.985 30.856C226.985 30.264 227.193 29.748 227.609 29.308C228.025 28.868 228.601 28.648 229.337 28.648C229.737 28.648 230.105 28.704 230.441 28.816C230.777 28.928 231.085 29.052 231.365 29.188L230.969 30.1ZM237.628 37V28.84H239.968C240.832 28.84 241.56 29.036 242.152 29.428C242.752 29.82 243.052 30.472 243.052 31.384C243.044 32.288 242.72 32.952 242.08 33.376C241.448 33.792 240.704 34 239.848 34H238.78V37H237.628ZM239.956 29.812H238.78V33.04H239.896C240.448 33.04 240.904 32.916 241.264 32.668C241.632 32.412 241.828 32 241.852 31.432C241.852 30.816 241.68 30.392 241.336 30.16C241 29.928 240.54 29.812 239.956 29.812ZM245.234 35.32C245.234 35.544 245.314 35.752 245.474 35.944C245.634 36.136 245.878 36.232 246.206 36.232C246.502 36.232 246.778 36.16 247.034 36.016C247.298 35.872 247.53 35.688 247.73 35.464V34.288H246.314C245.962 34.288 245.694 34.392 245.51 34.6C245.326 34.808 245.234 35.048 245.234 35.32ZM244.55 31.54C244.774 31.388 245.098 31.264 245.522 31.168C245.946 31.072 246.282 31.024 246.53 31.024C247.202 31.024 247.762 31.212 248.21 31.588C248.658 31.964 248.882 32.452 248.882 33.052V37H248.234C248.178 36.912 248.126 36.82 248.078 36.724C248.03 36.628 247.982 36.536 247.934 36.448C247.734 36.624 247.478 36.784 247.166 36.928C246.854 37.072 246.542 37.144 246.23 37.144C245.542 37.144 245.03 36.972 244.694 36.628C244.366 36.284 244.202 35.848 244.202 35.32C244.202 34.736 244.398 34.292 244.79 33.988C245.19 33.676 245.706 33.52 246.338 33.52H247.718C247.718 33.12 247.638 32.776 247.478 32.488C247.318 32.2 247.01 32.056 246.554 32.056C246.21 32.056 245.898 32.1 245.618 32.188C245.338 32.268 245.09 32.356 244.874 32.452L244.55 31.54ZM251.711 37.732L252.047 36.844L249.851 31.348L251.015 31.18L252.635 35.356L254.171 31.18H255.359L253.403 36.304L252.779 38.056C252.627 38.456 252.363 38.796 251.987 39.076C251.619 39.356 251.211 39.548 250.763 39.652L250.379 38.764C250.667 38.636 250.935 38.5 251.183 38.356C251.431 38.212 251.607 38.004 251.711 37.732Z" fill="#7B7E84"/>
<path d="M301.224 35.644C301.448 35.756 301.748 35.872 302.124 35.992C302.5 36.104 302.872 36.16 303.24 36.16C303.824 36.16 304.268 36.052 304.572 35.836C304.876 35.62 305.028 35.336 305.028 34.984C305.028 34.176 304.324 33.58 302.916 33.196C301.516 32.804 300.816 31.992 300.816 30.76C300.816 30.168 301.052 29.668 301.524 29.26C302.004 28.852 302.66 28.648 303.492 28.648C303.9 28.648 304.292 28.704 304.668 28.816C305.052 28.928 305.38 29.052 305.652 29.188C305.596 29.34 305.532 29.492 305.46 29.644C305.388 29.796 305.324 29.948 305.268 30.1C305.06 29.996 304.82 29.9 304.548 29.812C304.284 29.716 303.96 29.668 303.576 29.668C303.12 29.668 302.736 29.756 302.424 29.932C302.12 30.108 301.968 30.376 301.968 30.736C301.968 31.56 302.672 32.172 304.08 32.572C305.488 32.972 306.192 33.768 306.192 34.96C306.192 35.6 305.936 36.128 305.424 36.544C304.92 36.952 304.196 37.156 303.252 37.156C302.908 37.156 302.48 37.092 301.968 36.964C301.456 36.836 301.12 36.7 300.96 36.556C301 36.404 301.04 36.252 301.08 36.1C301.128 35.948 301.176 35.796 301.224 35.644ZM311.52 36.388C311.264 36.628 310.956 36.824 310.596 36.976C310.244 37.12 309.912 37.192 309.6 37.192C308.888 37.192 308.368 36.988 308.04 36.58C307.72 36.164 307.56 35.644 307.56 35.02V31.18H308.724V34.936C308.724 35.312 308.816 35.62 309 35.86C309.192 36.092 309.472 36.208 309.84 36.208C310.056 36.208 310.304 36.152 310.584 36.04C310.864 35.92 311.124 35.76 311.364 35.56V31.18H312.516V37H311.856L311.52 36.388ZM316.761 32.008C316.217 32.008 315.809 32.208 315.537 32.608C315.273 33 315.137 33.488 315.129 34.072C315.129 34.68 315.257 35.184 315.513 35.584C315.769 35.976 316.173 36.172 316.725 36.172C317.077 36.172 317.353 36.136 317.553 36.064C317.761 35.992 317.989 35.896 318.237 35.776L318.585 36.604C318.329 36.78 318.017 36.916 317.649 37.012C317.281 37.108 316.973 37.156 316.725 37.156C315.829 37.156 315.141 36.872 314.661 36.304C314.189 35.736 313.953 34.996 313.953 34.084C313.961 33.18 314.205 32.444 314.685 31.876C315.173 31.308 315.869 31.024 316.773 31.024C317.013 31.024 317.313 31.076 317.673 31.18C318.041 31.276 318.353 31.412 318.609 31.588L318.273 32.404C318.025 32.3 317.797 32.208 317.589 32.128C317.381 32.048 317.105 32.008 316.761 32.008ZM322.444 32.008C321.9 32.008 321.492 32.208 321.22 32.608C320.956 33 320.82 33.488 320.812 34.072C320.812 34.68 320.94 35.184 321.196 35.584C321.452 35.976 321.856 36.172 322.408 36.172C322.76 36.172 323.036 36.136 323.236 36.064C323.444 35.992 323.672 35.896 323.92 35.776L324.268 36.604C324.012 36.78 323.7 36.916 323.332 37.012C322.964 37.108 322.656 37.156 322.408 37.156C321.512 37.156 320.824 36.872 320.344 36.304C319.872 35.736 319.636 34.996 319.636 34.084C319.644 33.18 319.888 32.444 320.368 31.876C320.856 31.308 321.552 31.024 322.456 31.024C322.696 31.024 322.996 31.076 323.356 31.18C323.724 31.276 324.036 31.412 324.292 31.588L323.956 32.404C323.708 32.3 323.48 32.208 323.272 32.128C323.064 32.048 322.788 32.008 322.444 32.008ZM330.648 34.348H326.52C326.56 34.884 326.728 35.324 327.024 35.668C327.32 36.012 327.764 36.184 328.356 36.184C328.7 36.184 328.988 36.148 329.22 36.076C329.46 35.996 329.7 35.9 329.94 35.788L330.3 36.628C330.044 36.804 329.716 36.932 329.316 37.012C328.924 37.1 328.604 37.144 328.356 37.144C327.38 37.144 326.628 36.864 326.1 36.304C325.58 35.736 325.32 34.996 325.32 34.084C325.32 33.18 325.564 32.444 326.052 31.876C326.548 31.308 327.232 31.024 328.104 31.024C329.048 31.024 329.708 31.356 330.084 32.02C330.46 32.684 330.648 33.46 330.648 34.348ZM329.532 33.568C329.46 33.088 329.308 32.708 329.076 32.428C328.844 32.148 328.508 32.008 328.068 32.008C327.62 32.008 327.268 32.152 327.012 32.44C326.756 32.72 326.6 33.096 326.544 33.568H329.532ZM335.366 32.404C335.142 32.3 334.906 32.208 334.658 32.128C334.418 32.048 334.142 32.008 333.83 32.008C333.526 32.008 333.282 32.072 333.098 32.2C332.922 32.32 332.834 32.484 332.834 32.692C332.842 32.868 332.946 33.024 333.146 33.16C333.354 33.288 333.634 33.412 333.986 33.532C334.466 33.708 334.914 33.948 335.33 34.252C335.746 34.548 335.954 34.936 335.954 35.416C335.954 35.96 335.75 36.388 335.342 36.7C334.942 37.004 334.358 37.156 333.59 37.156C333.342 37.156 333.022 37.112 332.63 37.024C332.238 36.936 331.918 36.804 331.67 36.628L332.03 35.776C332.278 35.896 332.534 35.992 332.798 36.064C333.062 36.136 333.326 36.172 333.59 36.172C333.974 36.172 334.27 36.112 334.478 35.992C334.694 35.872 334.802 35.7 334.802 35.476C334.802 35.252 334.686 35.06 334.454 34.9C334.23 34.732 333.93 34.588 333.554 34.468C333.098 34.316 332.666 34.104 332.258 33.832C331.85 33.56 331.646 33.188 331.646 32.716C331.646 32.188 331.842 31.776 332.234 31.48C332.634 31.176 333.174 31.024 333.854 31.024C334.102 31.024 334.414 31.072 334.79 31.168C335.166 31.264 335.478 31.4 335.726 31.576L335.366 32.404ZM340.663 32.404C340.439 32.3 340.203 32.208 339.955 32.128C339.715 32.048 339.439 32.008 339.127 32.008C338.823 32.008 338.579 32.072 338.395 32.2C338.219 32.32 338.131 32.484 338.131 32.692C338.139 32.868 338.243 33.024 338.443 33.16C338.651 33.288 338.931 33.412 339.283 33.532C339.763 33.708 340.211 33.948 340.627 34.252C341.043 34.548 341.251 34.936 341.251 35.416C341.251 35.96 341.047 36.388 340.639 36.7C340.239 37.004 339.655 37.156 338.887 37.156C338.639 37.156 338.319 37.112 337.927 37.024C337.535 36.936 337.215 36.804 336.967 36.628L337.327 35.776C337.575 35.896 337.831 35.992 338.095 36.064C338.359 36.136 338.623 36.172 338.887 36.172C339.271 36.172 339.567 36.112 339.775 35.992C339.991 35.872 340.099 35.7 340.099 35.476C340.099 35.252 339.983 35.06 339.751 34.9C339.527 34.732 339.227 34.588 338.851 34.468C338.395 34.316 337.963 34.104 337.555 33.832C337.147 33.56 336.943 33.188 336.943 32.716C336.943 32.188 337.139 31.776 337.531 31.48C337.931 31.176 338.471 31.024 339.151 31.024C339.399 31.024 339.711 31.072 340.087 31.168C340.463 31.264 340.775 31.4 341.023 31.576L340.663 32.404Z" fill="#7B7E84"/>
<path d="M28.2674 10.9593C28.2674 16.7391 23.6152 21.4186 17.8837 21.4186C12.1522 21.4186 7.5 16.7391 7.5 10.9593C7.5 5.17952 12.1522 0.5 17.8837 0.5C23.6152 0.5 28.2674 5.17952 28.2674 10.9593Z" fill="#118592" stroke="#C4C4C4"/>
<path d="M20.3476 15H15.7556L15.6116 13.88H17.3396V7.752L16.3156 8.408L15.5956 7.352L17.8516 5.944H18.8756V13.88H20.2036L20.3476 15Z" fill="#FCFCFC"/>
<path d="M129.267 10.9593C129.267 16.7391 124.615 21.4186 118.884 21.4186C113.152 21.4186 108.5 16.7391 108.5 10.9593C108.5 5.17952 113.152 0.5 118.884 0.5C124.615 0.5 129.267 5.17952 129.267 10.9593Z" fill="#118592" stroke="#C4C4C4"/>
<path d="M118.548 5.736C119.732 5.736 120.559 6.03467 121.028 6.632C121.508 7.22933 121.748 7.85867 121.748 8.52C121.748 9.13867 121.551 9.70933 121.156 10.232C120.772 10.7547 120.196 11.3467 119.428 12.008L117.364 13.816H121.908L122.116 15H115.396V13.912L118.596 11.032C119.236 10.456 119.673 9.992 119.908 9.64C120.153 9.288 120.281 8.91467 120.292 8.52C120.292 8.08267 120.137 7.72 119.828 7.432C119.529 7.13333 119.092 6.984 118.516 6.984C118.057 6.984 117.588 7.11733 117.108 7.384C116.639 7.65067 116.399 7.78933 116.388 7.8L115.716 6.728C115.865 6.61067 116.191 6.41867 116.692 6.152C117.193 5.87467 117.812 5.736 118.548 5.736Z" fill="white"/>
<path d="M230.267 10.9593C230.267 16.7391 225.615 21.4186 219.884 21.4186C214.152 21.4186 209.5 16.7391 209.5 10.9593C209.5 5.17952 214.152 0.5 219.884 0.5C225.615 0.5 230.267 5.17952 230.267 10.9593Z" fill="#118592" stroke="#C4C4C4"/>
<path d="M219.601 5.736C220.7 5.736 221.521 6.008 222.065 6.552C222.609 7.096 222.881 7.72 222.881 8.424C222.881 8.95733 222.721 9.432 222.401 9.848C222.081 10.2533 221.718 10.5307 221.313 10.68C221.772 10.7867 222.177 11.0693 222.529 11.528C222.892 11.976 223.073 12.5307 223.073 13.192C223.073 14.0453 222.737 14.76 222.065 15.336C221.404 15.9227 220.508 16.216 219.377 16.216C218.78 16.216 218.193 16.12 217.617 15.928C217.041 15.736 216.54 15.528 216.113 15.304L216.897 14.248C217.292 14.4827 217.676 14.664 218.049 14.792C218.433 14.9093 218.886 14.968 219.409 14.968C219.964 14.968 220.465 14.8133 220.913 14.504C221.372 14.1947 221.601 13.7627 221.601 13.208C221.601 12.632 221.382 12.168 220.945 11.816C220.508 11.464 219.798 11.288 218.817 11.288H218.337L218.113 10.12H218.913C219.681 10.12 220.289 9.97067 220.737 9.672C221.185 9.36267 221.409 8.95733 221.409 8.456C221.409 8.06133 221.244 7.72 220.913 7.432C220.582 7.13333 220.129 6.984 219.553 6.984C219.03 6.984 218.556 7.07467 218.129 7.256C217.702 7.43733 217.356 7.61867 217.089 7.8L216.353 6.776C216.812 6.47733 217.308 6.232 217.841 6.04C218.374 5.83733 218.961 5.736 219.601 5.736Z" fill="white"/>
<line x1="28" y1="10.5" x2="108" y2="10.5" stroke="#C4C4C4"/>
<line x1="129" y1="10.5" x2="209" y2="10.5" stroke="#C4C4C4"/>
<line x1="231" y1="10.5" x2="310" y2="10.5" stroke="#C4C4C4"/>
<path d="M331.267 10.9593C331.267 16.7391 326.615 21.4186 320.884 21.4186C315.152 21.4186 310.5 16.7391 310.5 10.9593C310.5 5.17952 315.152 0.5 320.884 0.5C326.615 0.5 331.267 5.17952 331.267 10.9593Z" fill="#118592" stroke="#C4C4C4"/>
<path d="M324.752 13.944H323.248V16.104H321.712V13.944H317.04L316.832 12.68L322.144 5.864H323.248V12.68H324.928L324.752 13.944ZM318.48 12.68H321.712V8.456L318.48 12.68Z" fill="white"/>
</svg>
