<svg width="342" height="43" viewBox="0 0 342 43" fill="none" xmlns="http://www.w3.org/2000/svg">
<path d="M1.55183 37V28.84H4.37183C5.63583 28.84 6.55583 29.228 7.13183 30.004C7.71583 30.772 8.00783 31.728 8.00783 32.872C8.00783 34.064 7.69183 35.052 7.05983 35.836C6.42783 36.612 5.51583 37 4.32383 37H1.55183ZM4.41983 29.824H2.70383V36.04H4.32383C5.07583 36.04 5.68383 35.772 6.14783 35.236C6.61183 34.7 6.84383 33.916 6.84383 32.884C6.84383 31.98 6.64783 31.244 6.25583 30.676C5.86383 30.108 5.25183 29.824 4.41983 29.824ZM14.6947 34.348H10.5667C10.6067 34.884 10.7747 35.324 11.0707 35.668C11.3667 36.012 11.8107 36.184 12.4027 36.184C12.7467 36.184 13.0347 36.148 13.2667 36.076C13.5067 35.996 13.7467 35.9 13.9867 35.788L14.3467 36.628C14.0907 36.804 13.7627 36.932 13.3627 37.012C12.9707 37.1 12.6507 37.144 12.4027 37.144C11.4267 37.144 10.6747 36.864 10.1467 36.304C9.62673 35.736 9.36673 34.996 9.36673 34.084C9.36673 33.18 9.61073 32.444 10.0987 31.876C10.5947 31.308 11.2787 31.024 12.1507 31.024C13.0947 31.024 13.7547 31.356 14.1307 32.02C14.5067 32.684 14.6947 33.46 14.6947 34.348ZM13.5787 33.568C13.5067 33.088 13.3547 32.708 13.1227 32.428C12.8907 32.148 12.5547 32.008 12.1147 32.008C11.6667 32.008 11.3147 32.152 11.0587 32.44C10.8027 32.72 10.6467 33.096 10.5907 33.568H13.5787ZM19.0292 36.952C18.9252 37.008 18.7772 37.064 18.5852 37.12C18.4012 37.176 18.2212 37.204 18.0452 37.204C17.4772 37.204 17.0252 37.048 16.6892 36.736C16.3532 36.424 16.1852 35.972 16.1852 35.38V32.128H15.3692L15.3572 31.252H16.1852V29.8L17.3372 29.536V31.252H18.3932L18.7532 32.128H17.3372V35.2C17.3372 35.496 17.4012 35.74 17.5292 35.932C17.6652 36.116 17.8772 36.208 18.1652 36.208C18.2612 36.208 18.3572 36.196 18.4532 36.172C18.5572 36.14 18.6492 36.108 18.7292 36.076L19.0292 36.952ZM20.9113 35.32C20.9113 35.544 20.9913 35.752 21.1513 35.944C21.3113 36.136 21.5553 36.232 21.8833 36.232C22.1793 36.232 22.4553 36.16 22.7113 36.016C22.9753 35.872 23.2073 35.688 23.4073 35.464V34.288H21.9913C21.6393 34.288 21.3713 34.392 21.1873 34.6C21.0033 34.808 20.9113 35.048 20.9113 35.32ZM20.2273 31.54C20.4513 31.388 20.7753 31.264 21.1993 31.168C21.6233 31.072 21.9593 31.024 22.2073 31.024C22.8793 31.024 23.4393 31.212 23.8873 31.588C24.3353 31.964 24.5593 32.452 24.5593 33.052V37H23.9113C23.8553 36.912 23.8033 36.82 23.7553 36.724C23.7073 36.628 23.6593 36.536 23.6113 36.448C23.4113 36.624 23.1553 36.784 22.8433 36.928C22.5313 37.072 22.2193 37.144 21.9073 37.144C21.2193 37.144 20.7073 36.972 20.3713 36.628C20.0433 36.284 19.8793 35.848 19.8793 35.32C19.8793 34.736 20.0753 34.292 20.4673 33.988C20.8673 33.676 21.3833 33.52 22.0153 33.52H23.3953C23.3953 33.12 23.3153 32.776 23.1553 32.488C22.9953 32.2 22.6873 32.056 22.2313 32.056C21.8873 32.056 21.5753 32.1 21.2953 32.188C21.0153 32.268 20.7673 32.356 20.5513 32.452L20.2273 31.54ZM26.837 30.136C26.637 30.136 26.469 30.068 26.333 29.932C26.197 29.788 26.129 29.616 26.129 29.416C26.121 29.216 26.185 29.048 26.321 28.912C26.465 28.768 26.637 28.696 26.837 28.696C27.037 28.696 27.209 28.768 27.353 28.912C27.497 29.048 27.569 29.216 27.569 29.416C27.569 29.616 27.497 29.788 27.353 29.932C27.209 30.068 27.037 30.136 26.837 30.136ZM26.261 37V31.18H27.425V37H26.261ZM29.2147 37V28.66L30.3667 28.528V37H29.2147ZM35.4913 32.404C35.2673 32.3 35.0313 32.208 34.7833 32.128C34.5433 32.048 34.2673 32.008 33.9553 32.008C33.6513 32.008 33.4073 32.072 33.2233 32.2C33.0473 32.32 32.9593 32.484 32.9593 32.692C32.9673 32.868 33.0713 33.024 33.2713 33.16C33.4793 33.288 33.7593 33.412 34.1113 33.532C34.5913 33.708 35.0393 33.948 35.4553 34.252C35.8713 34.548 36.0793 34.936 36.0793 35.416C36.0793 35.96 35.8753 36.388 35.4673 36.7C35.0673 37.004 34.4833 37.156 33.7153 37.156C33.4673 37.156 33.1473 37.112 32.7553 37.024C32.3633 36.936 32.0433 36.804 31.7953 36.628L32.1553 35.776C32.4033 35.896 32.6593 35.992 32.9233 36.064C33.1873 36.136 33.4513 36.172 33.7153 36.172C34.0993 36.172 34.3953 36.112 34.6033 35.992C34.8193 35.872 34.9273 35.7 34.9273 35.476C34.9273 35.252 34.8113 35.06 34.5793 34.9C34.3553 34.732 34.0553 34.588 33.6793 34.468C33.2233 34.316 32.7913 34.104 32.3833 33.832C31.9753 33.56 31.7713 33.188 31.7713 32.716C31.7713 32.188 31.9673 31.776 32.3593 31.48C32.7593 31.176 33.2993 31.024 33.9793 31.024C34.2273 31.024 34.5393 31.072 34.9153 31.168C35.2913 31.264 35.6033 31.4 35.8513 31.576L35.4913 32.404Z" fill="#7B7E84"/>
<path d="M78.8583 34.384L76.6023 31.228V37H75.4503V28.84H76.1583L79.0263 32.872L81.7503 28.84H82.4703V37H81.3063V31.336L79.2783 34.324L78.8583 34.384ZM89.4955 34.348H85.3675C85.4075 34.884 85.5755 35.324 85.8715 35.668C86.1675 36.012 86.6115 36.184 87.2035 36.184C87.5475 36.184 87.8355 36.148 88.0675 36.076C88.3075 35.996 88.5475 35.9 88.7875 35.788L89.1475 36.628C88.8915 36.804 88.5635 36.932 88.1635 37.012C87.7715 37.1 87.4515 37.144 87.2035 37.144C86.2275 37.144 85.4755 36.864 84.9475 36.304C84.4275 35.736 84.1675 34.996 84.1675 34.084C84.1675 33.18 84.4115 32.444 84.8995 31.876C85.3955 31.308 86.0795 31.024 86.9515 31.024C87.8955 31.024 88.5555 31.356 88.9315 32.02C89.3075 32.684 89.4955 33.46 89.4955 34.348ZM88.3795 33.568C88.3075 33.088 88.1555 32.708 87.9235 32.428C87.6915 32.148 87.3555 32.008 86.9155 32.008C86.4675 32.008 86.1155 32.152 85.8595 32.44C85.6035 32.72 85.4475 33.096 85.3915 33.568H88.3795ZM95.522 31.936C95.77 31.664 96.086 31.44 96.47 31.264C96.862 31.08 97.23 30.988 97.574 30.988C98.286 30.988 98.802 31.196 99.122 31.612C99.45 32.02 99.614 32.536 99.614 33.16V37H98.45V33.268C98.45 32.876 98.354 32.564 98.162 32.332C97.978 32.1 97.698 31.98 97.322 31.972C97.074 31.972 96.81 32.04 96.53 32.176C96.25 32.312 95.994 32.492 95.762 32.716C95.77 32.796 95.774 32.872 95.774 32.944C95.782 33.008 95.786 33.08 95.786 33.16V37H94.622V33.268C94.622 32.876 94.53 32.564 94.346 32.332C94.162 32.1 93.886 31.98 93.518 31.972C93.278 31.972 93.026 32.032 92.762 32.152C92.498 32.272 92.254 32.444 92.03 32.668V37H90.878V31.18H91.526L91.838 31.804C92.094 31.564 92.398 31.368 92.75 31.216C93.11 31.064 93.446 30.988 93.758 30.988C94.198 30.988 94.562 31.076 94.85 31.252C95.146 31.42 95.37 31.648 95.522 31.936ZM101.332 37V28.66L102.484 28.528V31.516C102.716 31.364 102.968 31.24 103.24 31.144C103.512 31.04 103.768 30.988 104.008 30.988C104.864 30.988 105.508 31.284 105.94 31.876C106.372 32.46 106.588 33.192 106.588 34.072C106.588 34.952 106.368 35.684 105.928 36.268C105.496 36.852 104.856 37.144 104.008 37.144C103.736 37.144 103.44 37.088 103.12 36.976C102.8 36.856 102.512 36.696 102.256 36.496L101.98 37H101.332ZM102.484 35.656C102.684 35.816 102.9 35.944 103.132 36.04C103.364 36.128 103.58 36.172 103.78 36.172C104.38 36.172 104.8 35.964 105.04 35.548C105.288 35.124 105.412 34.636 105.412 34.084C105.412 33.5 105.296 33.004 105.064 32.596C104.832 32.18 104.404 31.972 103.78 31.972C103.58 31.972 103.364 32.02 103.132 32.116C102.9 32.204 102.684 32.332 102.484 32.5V35.656ZM113.038 34.348H108.91C108.95 34.884 109.118 35.324 109.414 35.668C109.71 36.012 110.154 36.184 110.746 36.184C111.09 36.184 111.378 36.148 111.61 36.076C111.85 35.996 112.09 35.9 112.33 35.788L112.69 36.628C112.434 36.804 112.106 36.932 111.706 37.012C111.314 37.1 110.994 37.144 110.746 37.144C109.77 37.144 109.018 36.864 108.49 36.304C107.97 35.736 107.71 34.996 107.71 34.084C107.71 33.18 107.954 32.444 108.442 31.876C108.938 31.308 109.622 31.024 110.494 31.024C111.438 31.024 112.098 31.356 112.474 32.02C112.85 32.684 113.038 33.46 113.038 34.348ZM111.922 33.568C111.85 33.088 111.698 32.708 111.466 32.428C111.234 32.148 110.898 32.008 110.458 32.008C110.01 32.008 109.658 32.152 109.402 32.44C109.146 32.72 108.99 33.096 108.934 33.568H111.922ZM114.421 37V31.18H115.069L115.441 32.008C115.665 31.816 115.945 31.632 116.281 31.456C116.625 31.272 116.953 31.18 117.265 31.18L117.517 32.104C117.197 32.104 116.861 32.192 116.509 32.368C116.165 32.536 115.853 32.756 115.573 33.028V37H114.421ZM118.559 28.336C118.759 28.336 118.931 28.416 119.075 28.576C119.227 28.736 119.303 28.944 119.303 29.2C119.303 29.608 119.171 30.02 118.907 30.436C118.651 30.852 118.335 31.16 117.959 31.36L117.683 30.82C117.875 30.668 118.035 30.516 118.163 30.364C118.299 30.212 118.383 30.02 118.415 29.788C118.271 29.78 118.135 29.704 118.007 29.56C117.887 29.408 117.827 29.244 117.827 29.068C117.827 28.892 117.899 28.728 118.043 28.576C118.187 28.416 118.359 28.336 118.559 28.336ZM123.605 32.404C123.381 32.3 123.145 32.208 122.897 32.128C122.657 32.048 122.381 32.008 122.069 32.008C121.765 32.008 121.521 32.072 121.337 32.2C121.161 32.32 121.073 32.484 121.073 32.692C121.081 32.868 121.185 33.024 121.385 33.16C121.593 33.288 121.873 33.412 122.225 33.532C122.705 33.708 123.153 33.948 123.569 34.252C123.985 34.548 124.193 34.936 124.193 35.416C124.193 35.96 123.989 36.388 123.581 36.7C123.181 37.004 122.597 37.156 121.829 37.156C121.581 37.156 121.261 37.112 120.869 37.024C120.477 36.936 120.157 36.804 119.909 36.628L120.269 35.776C120.517 35.896 120.773 35.992 121.037 36.064C121.301 36.136 121.565 36.172 121.829 36.172C122.213 36.172 122.509 36.112 122.717 35.992C122.933 35.872 123.041 35.7 123.041 35.476C123.041 35.252 122.925 35.06 122.693 34.9C122.469 34.732 122.169 34.588 121.793 34.468C121.337 34.316 120.905 34.104 120.497 33.832C120.089 33.56 119.885 33.188 119.885 32.716C119.885 32.188 120.081 31.776 120.473 31.48C120.873 31.176 121.413 31.024 122.093 31.024C122.341 31.024 122.653 31.072 123.029 31.168C123.405 31.264 123.717 31.4 123.965 31.576L123.605 32.404ZM128.653 37V28.84H131.473C132.737 28.84 133.657 29.228 134.233 30.004C134.817 30.772 135.109 31.728 135.109 32.872C135.109 34.064 134.793 35.052 134.161 35.836C133.529 36.612 132.617 37 131.425 37H128.653ZM131.521 29.824H129.805V36.04H131.425C132.177 36.04 132.785 35.772 133.249 35.236C133.713 34.7 133.945 33.916 133.945 32.884C133.945 31.98 133.749 31.244 133.357 30.676C132.965 30.108 132.353 29.824 131.521 29.824ZM141.796 34.348H137.668C137.708 34.884 137.876 35.324 138.172 35.668C138.468 36.012 138.912 36.184 139.504 36.184C139.848 36.184 140.136 36.148 140.368 36.076C140.608 35.996 140.848 35.9 141.088 35.788L141.448 36.628C141.192 36.804 140.864 36.932 140.464 37.012C140.072 37.1 139.752 37.144 139.504 37.144C138.528 37.144 137.776 36.864 137.248 36.304C136.728 35.736 136.468 34.996 136.468 34.084C136.468 33.18 136.712 32.444 137.2 31.876C137.696 31.308 138.38 31.024 139.252 31.024C140.196 31.024 140.856 31.356 141.232 32.02C141.608 32.684 141.796 33.46 141.796 34.348ZM140.68 33.568C140.608 33.088 140.456 32.708 140.224 32.428C139.992 32.148 139.656 32.008 139.216 32.008C138.768 32.008 138.416 32.152 138.16 32.44C137.904 32.72 137.748 33.096 137.692 33.568H140.68ZM146.131 36.952C146.027 37.008 145.879 37.064 145.687 37.12C145.503 37.176 145.323 37.204 145.147 37.204C144.579 37.204 144.127 37.048 143.791 36.736C143.455 36.424 143.287 35.972 143.287 35.38V32.128H142.471L142.459 31.252H143.287V29.8L144.439 29.536V31.252H145.495L145.855 32.128H144.439V35.2C144.439 35.496 144.503 35.74 144.631 35.932C144.767 36.116 144.979 36.208 145.267 36.208C145.363 36.208 145.459 36.196 145.555 36.172C145.659 36.14 145.751 36.108 145.831 36.076L146.131 36.952ZM148.013 35.32C148.013 35.544 148.093 35.752 148.253 35.944C148.413 36.136 148.657 36.232 148.985 36.232C149.281 36.232 149.557 36.16 149.813 36.016C150.077 35.872 150.309 35.688 150.509 35.464V34.288H149.093C148.741 34.288 148.473 34.392 148.289 34.6C148.105 34.808 148.013 35.048 148.013 35.32ZM147.329 31.54C147.553 31.388 147.877 31.264 148.301 31.168C148.725 31.072 149.061 31.024 149.309 31.024C149.981 31.024 150.541 31.212 150.989 31.588C151.437 31.964 151.661 32.452 151.661 33.052V37H151.013C150.957 36.912 150.905 36.82 150.857 36.724C150.809 36.628 150.761 36.536 150.713 36.448C150.513 36.624 150.257 36.784 149.945 36.928C149.633 37.072 149.321 37.144 149.009 37.144C148.321 37.144 147.809 36.972 147.473 36.628C147.145 36.284 146.981 35.848 146.981 35.32C146.981 34.736 147.177 34.292 147.569 33.988C147.969 33.676 148.485 33.52 149.117 33.52H150.497C150.497 33.12 150.417 32.776 150.257 32.488C150.097 32.2 149.789 32.056 149.333 32.056C148.989 32.056 148.677 32.1 148.397 32.188C148.117 32.268 147.869 32.356 147.653 32.452L147.329 31.54ZM153.939 30.136C153.739 30.136 153.571 30.068 153.435 29.932C153.299 29.788 153.231 29.616 153.231 29.416C153.223 29.216 153.287 29.048 153.423 28.912C153.567 28.768 153.739 28.696 153.939 28.696C154.139 28.696 154.311 28.768 154.455 28.912C154.599 29.048 154.671 29.216 154.671 29.416C154.671 29.616 154.599 29.788 154.455 29.932C154.311 30.068 154.139 30.136 153.939 30.136ZM153.363 37V31.18H154.527V37H153.363ZM156.316 37V28.66L157.468 28.528V37H156.316ZM162.593 32.404C162.369 32.3 162.133 32.208 161.885 32.128C161.645 32.048 161.369 32.008 161.057 32.008C160.753 32.008 160.509 32.072 160.325 32.2C160.149 32.32 160.061 32.484 160.061 32.692C160.069 32.868 160.173 33.024 160.373 33.16C160.581 33.288 160.861 33.412 161.213 33.532C161.693 33.708 162.141 33.948 162.557 34.252C162.973 34.548 163.181 34.936 163.181 35.416C163.181 35.96 162.977 36.388 162.569 36.7C162.169 37.004 161.585 37.156 160.817 37.156C160.569 37.156 160.249 37.112 159.857 37.024C159.465 36.936 159.145 36.804 158.897 36.628L159.257 35.776C159.505 35.896 159.761 35.992 160.025 36.064C160.289 36.136 160.553 36.172 160.817 36.172C161.201 36.172 161.497 36.112 161.705 35.992C161.921 35.872 162.029 35.7 162.029 35.476C162.029 35.252 161.913 35.06 161.681 34.9C161.457 34.732 161.157 34.588 160.781 34.468C160.325 34.316 159.893 34.104 159.485 33.832C159.077 33.56 158.873 33.188 158.873 32.716C158.873 32.188 159.069 31.776 159.461 31.48C159.861 31.176 160.401 31.024 161.081 31.024C161.329 31.024 161.641 31.072 162.017 31.168C162.393 31.264 162.705 31.4 162.953 31.576L162.593 32.404Z" fill="#7B7E84"/>
<path d="M187.948 29.812H186.772V32.8H187.888C188.424 32.8 188.88 32.692 189.256 32.476C189.64 32.252 189.836 31.864 189.844 31.312C189.844 30.736 189.668 30.344 189.316 30.136C188.972 29.92 188.516 29.812 187.948 29.812ZM190.42 37L188.596 33.7C188.468 33.708 188.34 33.716 188.212 33.724C188.092 33.732 187.968 33.736 187.84 33.736H186.772V37H185.62V28.84H187.96C188.824 28.84 189.552 29.032 190.144 29.416C190.744 29.792 191.044 30.408 191.044 31.264C191.036 31.8 190.9 32.248 190.636 32.608C190.372 32.96 190.032 33.224 189.616 33.4L191.668 37H190.42ZM197.943 34.348H193.815C193.855 34.884 194.023 35.324 194.319 35.668C194.615 36.012 195.059 36.184 195.651 36.184C195.995 36.184 196.283 36.148 196.515 36.076C196.755 35.996 196.995 35.9 197.235 35.788L197.595 36.628C197.339 36.804 197.011 36.932 196.611 37.012C196.219 37.1 195.899 37.144 195.651 37.144C194.675 37.144 193.923 36.864 193.395 36.304C192.875 35.736 192.615 34.996 192.615 34.084C192.615 33.18 192.859 32.444 193.347 31.876C193.843 31.308 194.527 31.024 195.399 31.024C196.343 31.024 197.003 31.356 197.379 32.02C197.755 32.684 197.943 33.46 197.943 34.348ZM196.827 33.568C196.755 33.088 196.603 32.708 196.371 32.428C196.139 32.148 195.803 32.008 195.363 32.008C194.915 32.008 194.563 32.152 194.307 32.44C194.051 32.72 193.895 33.096 193.839 33.568H196.827ZM200.837 37L198.605 31.348L199.781 31.18L201.389 35.38L202.925 31.18H204.113L201.905 37H200.837ZM205.726 30.136C205.526 30.136 205.358 30.068 205.222 29.932C205.086 29.788 205.018 29.616 205.018 29.416C205.01 29.216 205.074 29.048 205.21 28.912C205.354 28.768 205.526 28.696 205.726 28.696C205.926 28.696 206.098 28.768 206.242 28.912C206.386 29.048 206.458 29.216 206.458 29.416C206.458 29.616 206.386 29.788 206.242 29.932C206.098 30.068 205.926 30.136 205.726 30.136ZM205.15 37V31.18H206.314V37H205.15ZM213.083 34.348H208.955C208.995 34.884 209.163 35.324 209.459 35.668C209.755 36.012 210.199 36.184 210.791 36.184C211.135 36.184 211.423 36.148 211.655 36.076C211.895 35.996 212.135 35.9 212.375 35.788L212.735 36.628C212.479 36.804 212.151 36.932 211.751 37.012C211.359 37.1 211.039 37.144 210.791 37.144C209.815 37.144 209.063 36.864 208.535 36.304C208.015 35.736 207.755 34.996 207.755 34.084C207.755 33.18 207.999 32.444 208.487 31.876C208.983 31.308 209.667 31.024 210.539 31.024C211.483 31.024 212.143 31.356 212.519 32.02C212.895 32.684 213.083 33.46 213.083 34.348ZM211.967 33.568C211.895 33.088 211.743 32.708 211.511 32.428C211.279 32.148 210.943 32.008 210.503 32.008C210.055 32.008 209.703 32.152 209.447 32.44C209.191 32.72 209.035 33.096 208.979 33.568H211.967ZM219.494 37L218.09 32.86L216.758 37H215.702L213.746 31.348L214.922 31.18L216.242 35.284L217.502 31.18H218.714L220.034 35.284L221.294 31.18H222.482L220.55 37H219.494ZM227.285 34.42C227.285 35.02 227.485 35.456 227.885 35.728C228.285 36 228.729 36.136 229.217 36.136C229.569 36.136 229.889 36.08 230.177 35.968C230.465 35.848 230.713 35.684 230.921 35.476L228.569 33.328L228.029 32.824C227.797 33 227.617 33.228 227.489 33.508C227.361 33.78 227.293 34.084 227.285 34.42ZM230.969 30.1C230.745 29.996 230.513 29.896 230.273 29.8C230.033 29.696 229.725 29.644 229.349 29.644C228.973 29.644 228.677 29.76 228.461 29.992C228.253 30.224 228.149 30.488 228.149 30.784C228.149 31.12 228.241 31.416 228.425 31.672C228.617 31.92 228.901 32.216 229.277 32.56L231.497 34.624C231.625 34.352 231.725 34.052 231.797 33.724C231.877 33.388 231.929 33.032 231.953 32.656L232.937 33.04C232.913 33.488 232.853 33.912 232.757 34.312C232.661 34.704 232.529 35.064 232.361 35.392L233.333 36.268L232.685 37.096L231.737 36.22C231.441 36.516 231.085 36.744 230.669 36.904C230.253 37.064 229.769 37.144 229.217 37.144C228.353 37.136 227.617 36.908 227.009 36.46C226.401 36.004 226.097 35.332 226.097 34.444C226.105 33.956 226.221 33.5 226.445 33.076C226.677 32.652 226.977 32.308 227.345 32.044C227.233 31.876 227.145 31.696 227.081 31.504C227.017 31.312 226.985 31.096 226.985 30.856C226.985 30.264 227.193 29.748 227.609 29.308C228.025 28.868 228.601 28.648 229.337 28.648C229.737 28.648 230.105 28.704 230.441 28.816C230.777 28.928 231.085 29.052 231.365 29.188L230.969 30.1ZM237.628 37V28.84H239.968C240.832 28.84 241.56 29.036 242.152 29.428C242.752 29.82 243.052 30.472 243.052 31.384C243.044 32.288 242.72 32.952 242.08 33.376C241.448 33.792 240.704 34 239.848 34H238.78V37H237.628ZM239.956 29.812H238.78V33.04H239.896C240.448 33.04 240.904 32.916 241.264 32.668C241.632 32.412 241.828 32 241.852 31.432C241.852 30.816 241.68 30.392 241.336 30.16C241 29.928 240.54 29.812 239.956 29.812ZM245.234 35.32C245.234 35.544 245.314 35.752 245.474 35.944C245.634 36.136 245.878 36.232 246.206 36.232C246.502 36.232 246.778 36.16 247.034 36.016C247.298 35.872 247.53 35.688 247.73 35.464V34.288H246.314C245.962 34.288 245.694 34.392 245.51 34.6C245.326 34.808 245.234 35.048 245.234 35.32ZM244.55 31.54C244.774 31.388 245.098 31.264 245.522 31.168C245.946 31.072 246.282 31.024 246.53 31.024C247.202 31.024 247.762 31.212 248.21 31.588C248.658 31.964 248.882 32.452 248.882 33.052V37H248.234C248.178 36.912 248.126 36.82 248.078 36.724C248.03 36.628 247.982 36.536 247.934 36.448C247.734 36.624 247.478 36.784 247.166 36.928C246.854 37.072 246.542 37.144 246.23 37.144C245.542 37.144 245.03 36.972 244.694 36.628C244.366 36.284 244.202 35.848 244.202 35.32C244.202 34.736 244.398 34.292 244.79 33.988C245.19 33.676 245.706 33.52 246.338 33.52H247.718C247.718 33.12 247.638 32.776 247.478 32.488C247.318 32.2 247.01 32.056 246.554 32.056C246.21 32.056 245.898 32.1 245.618 32.188C245.338 32.268 245.09 32.356 244.874 32.452L244.55 31.54ZM251.711 37.732L252.047 36.844L249.851 31.348L251.015 31.18L252.635 35.356L254.171 31.18H255.359L253.403 36.304L252.779 38.056C252.627 38.456 252.363 38.796 251.987 39.076C251.619 39.356 251.211 39.548 250.763 39.652L250.379 38.764C250.667 38.636 250.935 38.5 251.183 38.356C251.431 38.212 251.607 38.004 251.711 37.732Z" fill="#7B7E84"/>
<path d="M301.224 35.644C301.448 35.756 301.748 35.872 302.124 35.992C302.5 36.104 302.872 36.16 303.24 36.16C303.824 36.16 304.268 36.052 304.572 35.836C304.876 35.62 305.028 35.336 305.028 34.984C305.028 34.176 304.324 33.58 302.916 33.196C301.516 32.804 300.816 31.992 300.816 30.76C300.816 30.168 301.052 29.668 301.524 29.26C302.004 28.852 302.66 28.648 303.492 28.648C303.9 28.648 304.292 28.704 304.668 28.816C305.052 28.928 305.38 29.052 305.652 29.188C305.596 29.34 305.532 29.492 305.46 29.644C305.388 29.796 305.324 29.948 305.268 30.1C305.06 29.996 304.82 29.9 304.548 29.812C304.284 29.716 303.96 29.668 303.576 29.668C303.12 29.668 302.736 29.756 302.424 29.932C302.12 30.108 301.968 30.376 301.968 30.736C301.968 31.56 302.672 32.172 304.08 32.572C305.488 32.972 306.192 33.768 306.192 34.96C306.192 35.6 305.936 36.128 305.424 36.544C304.92 36.952 304.196 37.156 303.252 37.156C302.908 37.156 302.48 37.092 301.968 36.964C301.456 36.836 301.12 36.7 300.96 36.556C301 36.404 301.04 36.252 301.08 36.1C301.128 35.948 301.176 35.796 301.224 35.644ZM311.52 36.388C311.264 36.628 310.956 36.824 310.596 36.976C310.244 37.12 309.912 37.192 309.6 37.192C308.888 37.192 308.368 36.988 308.04 36.58C307.72 36.164 307.56 35.644 307.56 35.02V31.18H308.724V34.936C308.724 35.312 308.816 35.62 309 35.86C309.192 36.092 309.472 36.208 309.84 36.208C310.056 36.208 310.304 36.152 310.584 36.04C310.864 35.92 311.124 35.76 311.364 35.56V31.18H312.516V37H311.856L311.52 36.388ZM316.761 32.008C316.217 32.008 315.809 32.208 315.537 32.608C315.273 33 315.137 33.488 315.129 34.072C315.129 34.68 315.257 35.184 315.513 35.584C315.769 35.976 316.173 36.172 316.725 36.172C317.077 36.172 317.353 36.136 317.553 36.064C317.761 35.992 317.989 35.896 318.237 35.776L318.585 36.604C318.329 36.78 318.017 36.916 317.649 37.012C317.281 37.108 316.973 37.156 316.725 37.156C315.829 37.156 315.141 36.872 314.661 36.304C314.189 35.736 313.953 34.996 313.953 34.084C313.961 33.18 314.205 32.444 314.685 31.876C315.173 31.308 315.869 31.024 316.773 31.024C317.013 31.024 317.313 31.076 317.673 31.18C318.041 31.276 318.353 31.412 318.609 31.588L318.273 32.404C318.025 32.3 317.797 32.208 317.589 32.128C317.381 32.048 317.105 32.008 316.761 32.008ZM322.444 32.008C321.9 32.008 321.492 32.208 321.22 32.608C320.956 33 320.82 33.488 320.812 34.072C320.812 34.68 320.94 35.184 321.196 35.584C321.452 35.976 321.856 36.172 322.408 36.172C322.76 36.172 323.036 36.136 323.236 36.064C323.444 35.992 323.672 35.896 323.92 35.776L324.268 36.604C324.012 36.78 323.7 36.916 323.332 37.012C322.964 37.108 322.656 37.156 322.408 37.156C321.512 37.156 320.824 36.872 320.344 36.304C319.872 35.736 319.636 34.996 319.636 34.084C319.644 33.18 319.888 32.444 320.368 31.876C320.856 31.308 321.552 31.024 322.456 31.024C322.696 31.024 322.996 31.076 323.356 31.18C323.724 31.276 324.036 31.412 324.292 31.588L323.956 32.404C323.708 32.3 323.48 32.208 323.272 32.128C323.064 32.048 322.788 32.008 322.444 32.008ZM330.648 34.348H326.52C326.56 34.884 326.728 35.324 327.024 35.668C327.32 36.012 327.764 36.184 328.356 36.184C328.7 36.184 328.988 36.148 329.22 36.076C329.46 35.996 329.7 35.9 329.94 35.788L330.3 36.628C330.044 36.804 329.716 36.932 329.316 37.012C328.924 37.1 328.604 37.144 328.356 37.144C327.38 37.144 326.628 36.864 326.1 36.304C325.58 35.736 325.32 34.996 325.32 34.084C325.32 33.18 325.564 32.444 326.052 31.876C326.548 31.308 327.232 31.024 328.104 31.024C329.048 31.024 329.708 31.356 330.084 32.02C330.46 32.684 330.648 33.46 330.648 34.348ZM329.532 33.568C329.46 33.088 329.308 32.708 329.076 32.428C328.844 32.148 328.508 32.008 328.068 32.008C327.62 32.008 327.268 32.152 327.012 32.44C326.756 32.72 326.6 33.096 326.544 33.568H329.532ZM335.366 32.404C335.142 32.3 334.906 32.208 334.658 32.128C334.418 32.048 334.142 32.008 333.83 32.008C333.526 32.008 333.282 32.072 333.098 32.2C332.922 32.32 332.834 32.484 332.834 32.692C332.842 32.868 332.946 33.024 333.146 33.16C333.354 33.288 333.634 33.412 333.986 33.532C334.466 33.708 334.914 33.948 335.33 34.252C335.746 34.548 335.954 34.936 335.954 35.416C335.954 35.96 335.75 36.388 335.342 36.7C334.942 37.004 334.358 37.156 333.59 37.156C333.342 37.156 333.022 37.112 332.63 37.024C332.238 36.936 331.918 36.804 331.67 36.628L332.03 35.776C332.278 35.896 332.534 35.992 332.798 36.064C333.062 36.136 333.326 36.172 333.59 36.172C333.974 36.172 334.27 36.112 334.478 35.992C334.694 35.872 334.802 35.7 334.802 35.476C334.802 35.252 334.686 35.06 334.454 34.9C334.23 34.732 333.93 34.588 333.554 34.468C333.098 34.316 332.666 34.104 332.258 33.832C331.85 33.56 331.646 33.188 331.646 32.716C331.646 32.188 331.842 31.776 332.234 31.48C332.634 31.176 333.174 31.024 333.854 31.024C334.102 31.024 334.414 31.072 334.79 31.168C335.166 31.264 335.478 31.4 335.726 31.576L335.366 32.404ZM340.663 32.404C340.439 32.3 340.203 32.208 339.955 32.128C339.715 32.048 339.439 32.008 339.127 32.008C338.823 32.008 338.579 32.072 338.395 32.2C338.219 32.32 338.131 32.484 338.131 32.692C338.139 32.868 338.243 33.024 338.443 33.16C338.651 33.288 338.931 33.412 339.283 33.532C339.763 33.708 340.211 33.948 340.627 34.252C341.043 34.548 341.251 34.936 341.251 35.416C341.251 35.96 341.047 36.388 340.639 36.7C340.239 37.004 339.655 37.156 338.887 37.156C338.639 37.156 338.319 37.112 337.927 37.024C337.535 36.936 337.215 36.804 336.967 36.628L337.327 35.776C337.575 35.896 337.831 35.992 338.095 36.064C338.359 36.136 338.623 36.172 338.887 36.172C339.271 36.172 339.567 36.112 339.775 35.992C339.991 35.872 340.099 35.7 340.099 35.476C340.099 35.252 339.983 35.06 339.751 34.9C339.527 34.732 339.227 34.588 338.851 34.468C338.395 34.316 337.963 34.104 337.555 33.832C337.147 33.56 336.943 33.188 336.943 32.716C336.943 32.188 337.139 31.776 337.531 31.48C337.931 31.176 338.471 31.024 339.151 31.024C339.399 31.024 339.711 31.072 340.087 31.168C340.463 31.264 340.775 31.4 341.023 31.576L340.663 32.404Z" fill="#7B7E84"/>
<path d="M28.2674 10.9593C28.2674 16.7391 23.6152 21.4186 17.8837 21.4186C12.1522 21.4186 7.5 16.7391 7.5 10.9593C7.5 5.17952 12.1522 0.5 17.8837 0.5C23.6152 0.5 28.2674 5.17952 28.2674 10.9593Z" fill="#118592" stroke="#C4C4C4"/>
<path d="M20.3476 15H15.7556L15.6116 13.88H17.3396V7.752L16.3156 8.408L15.5956 7.352L17.8516 5.944H18.8756V13.88H20.2036L20.3476 15Z" fill="#FCFCFC"/>
<path d="M129.267 10.9593C129.267 16.7391 124.615 21.4186 118.884 21.4186C113.152 21.4186 108.5 16.7391 108.5 10.9593C108.5 5.17952 113.152 0.5 118.884 0.5C124.615 0.5 129.267 5.17952 129.267 10.9593Z" fill="#118592" stroke="#C4C4C4"/>
<path d="M118.548 5.736C119.732 5.736 120.559 6.03467 121.028 6.632C121.508 7.22933 121.748 7.85867 121.748 8.52C121.748 9.13867 121.551 9.70933 121.156 10.232C120.772 10.7547 120.196 11.3467 119.428 12.008L117.364 13.816H121.908L122.116 15H115.396V13.912L118.596 11.032C119.236 10.456 119.673 9.992 119.908 9.64C120.153 9.288 120.281 8.91467 120.292 8.52C120.292 8.08267 120.137 7.72 119.828 7.432C119.529 7.13333 119.092 6.984 118.516 6.984C118.057 6.984 117.588 7.11733 117.108 7.384C116.639 7.65067 116.399 7.78933 116.388 7.8L115.716 6.728C115.865 6.61067 116.191 6.41867 116.692 6.152C117.193 5.87467 117.812 5.736 118.548 5.736Z" fill="white"/>
<path d="M230.267 10.9593C230.267 16.7391 225.615 21.4186 219.884 21.4186C214.152 21.4186 209.5 16.7391 209.5 10.9593C209.5 5.17952 214.152 0.5 219.884 0.5C225.615 0.5 230.267 5.17952 230.267 10.9593Z" fill="#118592" stroke="#C4C4C4"/>
<path d="M219.601 5.736C220.7 5.736 221.521 6.008 222.065 6.552C222.609 7.096 222.881 7.72 222.881 8.424C222.881 8.95733 222.721 9.432 222.401 9.848C222.081 10.2533 221.718 10.5307 221.313 10.68C221.772 10.7867 222.177 11.0693 222.529 11.528C222.892 11.976 223.073 12.5307 223.073 13.192C223.073 14.0453 222.737 14.76 222.065 15.336C221.404 15.9227 220.508 16.216 219.377 16.216C218.78 16.216 218.193 16.12 217.617 15.928C217.041 15.736 216.54 15.528 216.113 15.304L216.897 14.248C217.292 14.4827 217.676 14.664 218.049 14.792C218.433 14.9093 218.886 14.968 219.409 14.968C219.964 14.968 220.465 14.8133 220.913 14.504C221.372 14.1947 221.601 13.7627 221.601 13.208C221.601 12.632 221.382 12.168 220.945 11.816C220.508 11.464 219.798 11.288 218.817 11.288H218.337L218.113 10.12H218.913C219.681 10.12 220.289 9.97067 220.737 9.672C221.185 9.36267 221.409 8.95733 221.409 8.456C221.409 8.06133 221.244 7.72 220.913 7.432C220.582 7.13333 220.129 6.984 219.553 6.984C219.03 6.984 218.556 7.07467 218.129 7.256C217.702 7.43733 217.356 7.61867 217.089 7.8L216.353 6.776C216.812 6.47733 217.308 6.232 217.841 6.04C218.374 5.83733 218.961 5.736 219.601 5.736Z" fill="white"/>
<line x1="28" y1="10.5" x2="108" y2="10.5" stroke="#C4C4C4"/>
<line x1="129" y1="10.5" x2="209" y2="10.5" stroke="#C4C4C4"/>
<line x1="231" y1="10.5" x2="310" y2="10.5" stroke="#C4C4C4"/>
<path d="M331.267 10.9593C331.267 16.7391 326.615 21.4186 320.884 21.4186C315.152 21.4186 310.5 16.7391 310.5 10.9593C310.5 5.17952 315.152 0.5 320.884 0.5C326.615 0.5 331.267 5.17952 331.267 10.9593Z" stroke="#C4C4C4"/>
<path d="M324.752 13.944H323.248V16.104H321.712V13.944H317.04L316.832 12.68L322.144 5.864H323.248V12.68H324.928L324.752 13.944ZM318.48 12.68H321.712V8.456L318.48 12.68Z" fill="#C4C4C4"/>
<path d="M324.752 13.944V14.944H325.622L325.742 14.0819L324.752 13.944ZM323.248 13.944V12.944H322.248V13.944H323.248ZM323.248 16.104V17.104H324.248V16.104H323.248ZM321.712 16.104H320.712V17.104H321.712V16.104ZM321.712 13.944H322.712V12.944H321.712V13.944ZM317.04 13.944L316.053 14.1064L316.191 14.944H317.04V13.944ZM316.832 12.68L316.043 12.0653L315.774 12.4105L315.845 12.8424L316.832 12.68ZM322.144 5.864V4.864H321.655L321.355 5.24929L322.144 5.864ZM323.248 5.864H324.248V4.864H323.248V5.864ZM323.248 12.68H322.248V13.68H323.248V12.68ZM324.928 12.68L325.918 12.8179L326.077 11.68H324.928V12.68ZM318.48 12.68L317.685 12.0723L316.455 13.68H318.48V12.68ZM321.712 12.68V13.68H322.712V12.68H321.712ZM321.712 8.456H322.712V5.50345L320.917 7.84833L321.712 8.456ZM324.752 12.944H323.248V14.944H324.752V12.944ZM322.248 13.944V16.104H324.248V13.944H322.248ZM323.248 15.104H321.712V17.104H323.248V15.104ZM322.712 16.104V13.944H320.712V16.104H322.712ZM321.712 12.944H317.04V14.944H321.712V12.944ZM318.026 13.7816L317.818 12.5176L315.845 12.8424L316.053 14.1064L318.026 13.7816ZM317.62 13.2947L322.932 6.47871L321.355 5.24929L316.043 12.0653L317.62 13.2947ZM322.144 6.864H323.248V4.864H322.144V6.864ZM322.248 5.864V12.68H324.248V5.864H322.248ZM323.248 13.68H324.928V11.68H323.248V13.68ZM323.937 12.5421L323.761 13.8061L325.742 14.0819L325.918 12.8179L323.937 12.5421ZM318.48 13.68H321.712V11.68H318.48V13.68ZM322.712 12.68V8.456H320.712V12.68H322.712ZM320.917 7.84833L317.685 12.0723L319.274 13.2877L322.506 9.06367L320.917 7.84833Z" fill="#C4C4C4"/>
</svg>
