<svg width="60" height="60" viewBox="0 0 60 60" fill="none" xmlns="http://www.w3.org/2000/svg">
<rect x="0.5" y="0.5" width="59" height="59" rx="7.5" fill="#118592" stroke="#118592"/>
<path d="M26.3056 21.991C27.2764 21.5596 28.2472 21.3438 29.3258 21.236V23.9326C29.3258 24.2562 29.5416 24.4719 29.8652 24.4719C30.1888 24.4719 30.4045 24.2562 30.4045 23.9326V21.236C32.3461 21.3438 34.1798 22.0989 35.582 23.3933L35.2584 23.7169C35.1506 23.8247 35.1506 23.9326 35.1506 24.1483C35.1506 24.4719 35.3663 24.6876 35.6899 24.6876C35.7978 24.6876 36.0135 24.5798 36.1213 24.5798L36.3371 24.1483C37.5236 25.5506 38.3865 27.3843 38.4944 29.3258H35.7978C35.4742 29.3258 35.2584 29.5416 35.2584 29.8652C35.2584 30.1888 35.4742 30.4045 35.7978 30.4045H38.4944C38.3865 31.4831 38.1708 32.4539 37.7393 33.4247C37.6315 33.7483 37.7393 33.964 37.9551 34.1798H38.1708C38.3865 34.1798 38.6022 34.0719 38.7101 33.8562C39.2494 32.7775 39.4652 31.591 39.573 30.4045H41.191C41.5146 30.4045 41.7303 30.1888 41.7303 29.8652C41.7303 29.5416 41.5146 29.3258 41.191 29.3258H39.573C39.4652 27.0607 38.4944 25.0112 37.0921 23.3933L38.1708 22.3146C38.3865 22.0989 38.3865 21.7753 38.1708 21.5596C37.9551 21.3438 37.6315 21.3438 37.4157 21.5596L36.3371 22.6382C34.7191 21.236 32.6697 20.2652 30.4045 20.1573V18.5393C30.4045 18.2157 30.1888 18 29.8652 18C29.5416 18 29.3258 18.2157 29.3258 18.5393V20.1573C28.1393 20.2652 26.9528 20.4809 25.8742 21.0202C25.5506 21.1281 25.4427 21.4517 25.5506 21.7753C25.7663 21.991 26.0899 22.0989 26.3056 21.991ZM26.6292 31.4831C25.7663 31.4831 25.0112 32.2382 25.0112 33.1011C25.0112 33.964 25.7663 34.7191 26.6292 34.7191C27.4921 34.7191 28.2472 33.964 28.2472 33.1011C28.2472 32.2382 27.4921 31.4831 26.6292 31.4831ZM26.6292 33.6404C26.3056 33.6404 26.0899 33.4247 26.0899 33.1011C26.0899 32.7775 26.3056 32.5618 26.6292 32.5618C26.9528 32.5618 27.1685 32.7775 27.1685 33.1011C27.1685 33.4247 26.9528 33.6404 26.6292 33.6404ZM18.9708 18.1079C18.7551 18 18.3236 18 18.2157 18.1079C18 18.3236 18 18.7551 18.1079 18.9708L22.6382 23.3933C21.1281 25.0112 20.2652 27.1685 20.1573 29.3258H18.5393C18.2157 29.3258 18 29.5416 18 29.8652C18 30.1888 18.2157 30.4045 18.5393 30.4045H20.1573C20.2652 32.6697 21.236 34.7191 22.6382 36.3371L21.5596 37.4157C21.4517 37.5236 21.4517 37.6315 21.4517 37.8472C21.4517 38.1708 21.6674 38.3865 21.991 38.3865C22.0989 38.3865 22.3146 38.2787 22.4225 38.2787L23.5011 37.2C25.1191 38.6022 27.1685 39.573 29.4337 39.6809V41.2989C29.4337 41.6225 29.6494 41.8382 29.973 41.8382C30.2966 41.8382 30.5124 41.6225 30.5124 41.2989V39.573C32.6697 39.4652 34.827 38.6022 36.4449 37.0921L40.9753 41.6225C41.0831 41.7303 41.191 41.7303 41.4067 41.7303C41.5146 41.7303 41.7303 41.6225 41.8382 41.6225C42.0539 41.4067 42.0539 41.0831 41.8382 40.8674L18.9708 18.1079ZM26.6292 27.3843L28.1393 28.8944C27.9236 29.218 27.6 29.4337 27.2764 29.4337C26.6292 29.4337 26.1978 29.0022 26.1978 28.3551C26.0899 27.9236 26.3056 27.4921 26.6292 27.3843ZM30.4045 38.4944V34.7191C30.4045 34.3955 30.1888 34.1798 29.8652 34.1798C29.5416 34.1798 29.3258 34.3955 29.3258 34.7191V38.4944C27.4921 38.3865 25.6584 37.6315 24.1483 36.3371L24.4719 36.0135C24.6876 35.7978 24.6876 35.4742 24.4719 35.2584C24.2562 35.0427 23.9326 35.0427 23.7169 35.2584L23.3933 35.582C22.0989 34.0719 21.3438 32.2382 21.236 30.4045H23.9326C24.2562 30.4045 24.4719 30.1888 24.4719 29.8652C24.4719 29.5416 24.2562 29.3258 23.9326 29.3258H21.236C21.3438 27.4921 22.0989 25.6584 23.3933 24.1483L25.8742 26.6292C25.3348 27.0607 25.0112 27.6 25.0112 28.2472C25.0112 29.4337 25.982 30.4045 27.1685 30.4045C27.8157 30.4045 28.4629 30.0809 28.7865 29.5416L35.4742 36.2292C34.0719 37.6315 32.2382 38.3865 30.4045 38.4944ZM31.4831 26.6292C31.4831 27.4921 32.2382 28.2472 33.1011 28.2472C33.964 28.2472 34.7191 27.4921 34.7191 26.6292C34.7191 25.7663 33.964 25.0112 33.1011 25.0112C32.2382 25.0112 31.4831 25.7663 31.4831 26.6292ZM33.6404 26.6292C33.6404 26.9528 33.4247 27.1685 33.1011 27.1685C32.7775 27.1685 32.5618 26.9528 32.5618 26.6292C32.5618 26.3056 32.7775 26.0899 33.1011 26.0899C33.4247 26.0899 33.6404 26.3056 33.6404 26.6292Z" fill="white"/>
</svg>
