<svg width="262" height="120" viewBox="0 0 262 120" fill="none" xmlns="http://www.w3.org/2000/svg">
<rect width="262" height="120" rx="8" fill="#C5EBEF"/>
<path d="M72 65.7201C75.9863 62.9795 76.0422 59.7128 76.8393 55.3289C76.9789 54.5613 78.2418 50.7568 76.8096 50.7568C74.7633 50.7568 74.672 55.4853 74.672 56.754C74.672 59.2439 75.2901 60.7804 76.008 63.0777C76.6882 65.2542 75.9981 67.65 76.394 69.8765C76.8566 72.4791 79.1532 79.4035 75.9783 81.2177C73.2117 82.7986 72 78.1435 72 76.1112C72 73.7402 73.08 74.2705 75.2658 74.2705C81.2495 74.2705 84.8256 71.9204 84.8256 65.5122C84.8256 63.6501 83.8198 62.7499 82.5693 64.77C81.1051 67.1353 81.0848 69.1828 81.0848 71.8657C81.0848 73.9639 83.3717 71.5741 83.7568 70.8266C84.6574 69.0784 84.8256 68.0886 84.8256 66.1357C84.8256 65.4581 84.7483 69.9359 86.7257 69.9359C89.5821 69.9359 88.7065 64.5255 89.2196 62.9293C90.5305 58.8509 91.7728 64.7685 91.7728 66.2545C91.7728 67.536 92.9228 59.2194 94.0292 58.8916C97.4032 57.8919 97.9687 67.892 98.2153 62.959C98.5053 57.1596 102.66 54.4333 107.152 59.3072C107.907 60.1272 108.714 64.2173 110.714 62.2168C111.809 61.1226 112.403 59.4824 112.585 57.9416C112.703 56.933 112.466 52.0268 111.961 55.3883C111.779 56.6021 110.361 63.0983 112.407 63.5528C115.921 64.3337 114.752 59.0994 114.752 56.9915C114.752 52.7746 115.968 58.0993 116.652 59.8416C119.098 66.0673 121.11 56.8268 121.165 54.6164C121.364 46.6545 123.785 58.22 125.084 60.1088C125.381 60.5409 125.415 56.5377 125.499 55.9227C125.618 55.0634 126.438 53.3149 127.578 53.4288C131.195 53.7906 131.155 59.6779 132.922 61.4448" stroke="black" stroke-linecap="round"/>
<path d="M146.816 39C152.069 48.9025 155.836 60.5864 158.038 71.5984" stroke="black" stroke-linecap="round"/>
<path d="M160.176 40.603C160.176 47.2292 161.009 54.6324 158.276 60.8806C157.683 62.2359 155.126 64.1859 156.257 62.9885C159.123 59.9543 164.151 60.1942 167.064 63.1072C170.023 66.0662 169.795 69.1177 169.795 63.1369C169.795 59.6445 167.715 52.2885 172.467 51.9442C178.434 51.5118 179.949 59.8318 179.949 64.2948C179.949 65.1603 179.617 66.4521 178.88 64.7698C177.364 61.3119 177.602 56.6173 178.88 53.1318C179.476 51.5067 180.737 49.6878 182.621 49.6878" stroke="black" stroke-linecap="round"/>
<path d="M187.431 60.3758C188.598 57.1241 187.431 58.5913 187.431 61.029C187.431 62.1712 188.764 64.5368 189.45 62.2759C189.584 61.8305 189.676 59.5212 189.45 59.7226C188.704 60.3855 188.499 61.8181 188.499 60.9102" stroke="black" stroke-linecap="round"/>
</svg>
