<svg width="340" height="43" viewBox="0 0 340 43" fill="none" xmlns="http://www.w3.org/2000/svg">
<path d="M1.55183 37V28.84H4.37183C5.63583 28.84 6.55583 29.228 7.13183 30.004C7.71583 30.772 8.00783 31.728 8.00783 32.872C8.00783 34.064 7.69183 35.052 7.05983 35.836C6.42783 36.612 5.51583 37 4.32383 37H1.55183ZM4.41983 29.824H2.70383V36.04H4.32383C5.07583 36.04 5.68383 35.772 6.14783 35.236C6.61183 34.7 6.84383 33.916 6.84383 32.884C6.84383 31.98 6.64783 31.244 6.25583 30.676C5.86383 30.108 5.25183 29.824 4.41983 29.824ZM14.6947 34.348H10.5667C10.6067 34.884 10.7747 35.324 11.0707 35.668C11.3667 36.012 11.8107 36.184 12.4027 36.184C12.7467 36.184 13.0347 36.148 13.2667 36.076C13.5067 35.996 13.7467 35.9 13.9867 35.788L14.3467 36.628C14.0907 36.804 13.7627 36.932 13.3627 37.012C12.9707 37.1 12.6507 37.144 12.4027 37.144C11.4267 37.144 10.6747 36.864 10.1467 36.304C9.62673 35.736 9.36673 34.996 9.36673 34.084C9.36673 33.18 9.61073 32.444 10.0987 31.876C10.5947 31.308 11.2787 31.024 12.1507 31.024C13.0947 31.024 13.7547 31.356 14.1307 32.02C14.5067 32.684 14.6947 33.46 14.6947 34.348ZM13.5787 33.568C13.5067 33.088 13.3547 32.708 13.1227 32.428C12.8907 32.148 12.5547 32.008 12.1147 32.008C11.6667 32.008 11.3147 32.152 11.0587 32.44C10.8027 32.72 10.6467 33.096 10.5907 33.568H13.5787ZM19.0292 36.952C18.9252 37.008 18.7772 37.064 18.5852 37.12C18.4012 37.176 18.2212 37.204 18.0452 37.204C17.4772 37.204 17.0252 37.048 16.6892 36.736C16.3532 36.424 16.1852 35.972 16.1852 35.38V32.128H15.3692L15.3572 31.252H16.1852V29.8L17.3372 29.536V31.252H18.3932L18.7532 32.128H17.3372V35.2C17.3372 35.496 17.4012 35.74 17.5292 35.932C17.6652 36.116 17.8772 36.208 18.1652 36.208C18.2612 36.208 18.3572 36.196 18.4532 36.172C18.5572 36.14 18.6492 36.108 18.7292 36.076L19.0292 36.952ZM20.9113 35.32C20.9113 35.544 20.9913 35.752 21.1513 35.944C21.3113 36.136 21.5553 36.232 21.8833 36.232C22.1793 36.232 22.4553 36.16 22.7113 36.016C22.9753 35.872 23.2073 35.688 23.4073 35.464V34.288H21.9913C21.6393 34.288 21.3713 34.392 21.1873 34.6C21.0033 34.808 20.9113 35.048 20.9113 35.32ZM20.2273 31.54C20.4513 31.388 20.7753 31.264 21.1993 31.168C21.6233 31.072 21.9593 31.024 22.2073 31.024C22.8793 31.024 23.4393 31.212 23.8873 31.588C24.3353 31.964 24.5593 32.452 24.5593 33.052V37H23.9113C23.8553 36.912 23.8033 36.82 23.7553 36.724C23.7073 36.628 23.6593 36.536 23.6113 36.448C23.4113 36.624 23.1553 36.784 22.8433 36.928C22.5313 37.072 22.2193 37.144 21.9073 37.144C21.2193 37.144 20.7073 36.972 20.3713 36.628C20.0433 36.284 19.8793 35.848 19.8793 35.32C19.8793 34.736 20.0753 34.292 20.4673 33.988C20.8673 33.676 21.3833 33.52 22.0153 33.52H23.3953C23.3953 33.12 23.3153 32.776 23.1553 32.488C22.9953 32.2 22.6873 32.056 22.2313 32.056C21.8873 32.056 21.5753 32.1 21.2953 32.188C21.0153 32.268 20.7673 32.356 20.5513 32.452L20.2273 31.54ZM26.837 30.136C26.637 30.136 26.469 30.068 26.333 29.932C26.197 29.788 26.129 29.616 26.129 29.416C26.121 29.216 26.185 29.048 26.321 28.912C26.465 28.768 26.637 28.696 26.837 28.696C27.037 28.696 27.209 28.768 27.353 28.912C27.497 29.048 27.569 29.216 27.569 29.416C27.569 29.616 27.497 29.788 27.353 29.932C27.209 30.068 27.037 30.136 26.837 30.136ZM26.261 37V31.18H27.425V37H26.261ZM29.2147 37V28.66L30.3667 28.528V37H29.2147ZM35.4913 32.404C35.2673 32.3 35.0313 32.208 34.7833 32.128C34.5433 32.048 34.2673 32.008 33.9553 32.008C33.6513 32.008 33.4073 32.072 33.2233 32.2C33.0473 32.32 32.9593 32.484 32.9593 32.692C32.9673 32.868 33.0713 33.024 33.2713 33.16C33.4793 33.288 33.7593 33.412 34.1113 33.532C34.5913 33.708 35.0393 33.948 35.4553 34.252C35.8713 34.548 36.0793 34.936 36.0793 35.416C36.0793 35.96 35.8753 36.388 35.4673 36.7C35.0673 37.004 34.4833 37.156 33.7153 37.156C33.4673 37.156 33.1473 37.112 32.7553 37.024C32.3633 36.936 32.0433 36.804 31.7953 36.628L32.1553 35.776C32.4033 35.896 32.6593 35.992 32.9233 36.064C33.1873 36.136 33.4513 36.172 33.7153 36.172C34.0993 36.172 34.3953 36.112 34.6033 35.992C34.8193 35.872 34.9273 35.7 34.9273 35.476C34.9273 35.252 34.8113 35.06 34.5793 34.9C34.3553 34.732 34.0553 34.588 33.6793 34.468C33.2233 34.316 32.7913 34.104 32.3833 33.832C31.9753 33.56 31.7713 33.188 31.7713 32.716C31.7713 32.188 31.9673 31.776 32.3593 31.48C32.7593 31.176 33.2993 31.024 33.9793 31.024C34.2273 31.024 34.5393 31.072 34.9153 31.168C35.2913 31.264 35.6033 31.4 35.8513 31.576L35.4913 32.404Z" fill="#7B7E84"/>
<path d="M90.4346 37V28.84H93.2546C94.5186 28.84 95.4386 29.228 96.0146 30.004C96.5986 30.772 96.8906 31.728 96.8906 32.872C96.8906 34.064 96.5746 35.052 95.9426 35.836C95.3106 36.612 94.3986 37 93.2066 37H90.4346ZM93.3026 29.824H91.5866V36.04H93.2066C93.9586 36.04 94.5666 35.772 95.0306 35.236C95.4946 34.7 95.7266 33.916 95.7266 32.884C95.7266 31.98 95.5306 31.244 95.1386 30.676C94.7466 30.108 94.1346 29.824 93.3026 29.824ZM100.938 37.156C100.058 37.148 99.3895 36.86 98.9335 36.292C98.4775 35.716 98.2495 34.976 98.2495 34.072C98.2575 33.176 98.5055 32.448 98.9935 31.888C99.4815 31.32 100.166 31.032 101.046 31.024C101.958 31.024 102.646 31.316 103.11 31.9C103.582 32.476 103.818 33.22 103.818 34.132C103.818 35.036 103.562 35.764 103.05 36.316C102.538 36.868 101.834 37.148 100.938 37.156ZM102.654 34.132C102.654 33.508 102.53 33 102.282 32.608C102.034 32.208 101.634 32.008 101.082 32.008C100.53 32.008 100.118 32.196 99.8455 32.572C99.5735 32.94 99.4335 33.436 99.4255 34.06C99.4255 34.708 99.5415 35.224 99.7735 35.608C100.014 35.984 100.41 36.172 100.962 36.172C101.506 36.172 101.922 35.992 102.21 35.632C102.498 35.272 102.646 34.772 102.654 34.132ZM107.761 32.008C107.217 32.008 106.809 32.208 106.537 32.608C106.273 33 106.137 33.488 106.129 34.072C106.129 34.68 106.257 35.184 106.513 35.584C106.769 35.976 107.173 36.172 107.725 36.172C108.077 36.172 108.353 36.136 108.553 36.064C108.761 35.992 108.989 35.896 109.237 35.776L109.585 36.604C109.329 36.78 109.017 36.916 108.649 37.012C108.281 37.108 107.973 37.156 107.725 37.156C106.829 37.156 106.141 36.872 105.661 36.304C105.189 35.736 104.953 34.996 104.953 34.084C104.961 33.18 105.205 32.444 105.685 31.876C106.173 31.308 106.869 31.024 107.773 31.024C108.013 31.024 108.313 31.076 108.673 31.18C109.041 31.276 109.353 31.412 109.609 31.588L109.273 32.404C109.025 32.3 108.797 32.208 108.589 32.128C108.381 32.048 108.105 32.008 107.761 32.008ZM114.836 36.388C114.58 36.628 114.272 36.824 113.912 36.976C113.56 37.12 113.228 37.192 112.916 37.192C112.204 37.192 111.684 36.988 111.356 36.58C111.036 36.164 110.876 35.644 110.876 35.02V31.18H112.04V34.936C112.04 35.312 112.132 35.62 112.316 35.86C112.508 36.092 112.788 36.208 113.156 36.208C113.372 36.208 113.62 36.152 113.9 36.04C114.18 35.92 114.44 35.76 114.68 35.56V31.18H115.832V37H115.172L114.836 36.388ZM122.225 31.936C122.473 31.664 122.789 31.44 123.173 31.264C123.565 31.08 123.933 30.988 124.277 30.988C124.989 30.988 125.505 31.196 125.825 31.612C126.153 32.02 126.317 32.536 126.317 33.16V37H125.153V33.268C125.153 32.876 125.057 32.564 124.865 32.332C124.681 32.1 124.401 31.98 124.025 31.972C123.777 31.972 123.513 32.04 123.233 32.176C122.953 32.312 122.697 32.492 122.465 32.716C122.473 32.796 122.477 32.872 122.477 32.944C122.485 33.008 122.489 33.08 122.489 33.16V37H121.325V33.268C121.325 32.876 121.233 32.564 121.049 32.332C120.865 32.1 120.589 31.98 120.221 31.972C119.981 31.972 119.729 32.032 119.465 32.152C119.201 32.272 118.957 32.444 118.733 32.668V37H117.581V31.18H118.229L118.541 31.804C118.797 31.564 119.101 31.368 119.453 31.216C119.813 31.064 120.149 30.988 120.461 30.988C120.901 30.988 121.265 31.076 121.553 31.252C121.849 31.42 122.073 31.648 122.225 31.936ZM133.015 34.348H128.887C128.927 34.884 129.095 35.324 129.391 35.668C129.687 36.012 130.131 36.184 130.723 36.184C131.067 36.184 131.355 36.148 131.587 36.076C131.827 35.996 132.067 35.9 132.307 35.788L132.667 36.628C132.411 36.804 132.083 36.932 131.683 37.012C131.291 37.1 130.971 37.144 130.723 37.144C129.747 37.144 128.995 36.864 128.467 36.304C127.947 35.736 127.687 34.996 127.687 34.084C127.687 33.18 127.931 32.444 128.419 31.876C128.915 31.308 129.599 31.024 130.471 31.024C131.415 31.024 132.075 31.356 132.451 32.02C132.827 32.684 133.015 33.46 133.015 34.348ZM131.899 33.568C131.827 33.088 131.675 32.708 131.443 32.428C131.211 32.148 130.875 32.008 130.435 32.008C129.987 32.008 129.635 32.152 129.379 32.44C129.123 32.72 128.967 33.096 128.911 33.568H131.899ZM135.405 31.948C135.653 31.676 135.973 31.448 136.365 31.264C136.757 31.08 137.121 30.988 137.457 30.988C138.169 30.988 138.685 31.196 139.005 31.612C139.333 32.02 139.497 32.536 139.497 33.16V37H138.345V33.268C138.345 32.876 138.249 32.564 138.057 32.332C137.873 32.1 137.593 31.98 137.217 31.972C136.977 31.972 136.697 32.048 136.377 32.2C136.057 32.352 135.781 32.552 135.549 32.8V37H134.397V31.18H135.045L135.405 31.948ZM144.146 36.952C144.042 37.008 143.894 37.064 143.702 37.12C143.518 37.176 143.338 37.204 143.162 37.204C142.594 37.204 142.142 37.048 141.806 36.736C141.47 36.424 141.302 35.972 141.302 35.38V32.128H140.486L140.474 31.252H141.302V29.8L142.454 29.536V31.252H143.51L143.87 32.128H142.454V35.2C142.454 35.496 142.518 35.74 142.646 35.932C142.782 36.116 142.994 36.208 143.282 36.208C143.378 36.208 143.474 36.196 143.57 36.172C143.674 36.14 143.766 36.108 143.846 36.076L144.146 36.952ZM148.608 32.404C148.384 32.3 148.148 32.208 147.9 32.128C147.66 32.048 147.384 32.008 147.072 32.008C146.768 32.008 146.524 32.072 146.34 32.2C146.164 32.32 146.076 32.484 146.076 32.692C146.084 32.868 146.188 33.024 146.388 33.16C146.596 33.288 146.876 33.412 147.228 33.532C147.708 33.708 148.156 33.948 148.572 34.252C148.988 34.548 149.196 34.936 149.196 35.416C149.196 35.96 148.992 36.388 148.584 36.7C148.184 37.004 147.6 37.156 146.832 37.156C146.584 37.156 146.264 37.112 145.872 37.024C145.48 36.936 145.16 36.804 144.912 36.628L145.272 35.776C145.52 35.896 145.776 35.992 146.04 36.064C146.304 36.136 146.568 36.172 146.832 36.172C147.216 36.172 147.512 36.112 147.72 35.992C147.936 35.872 148.044 35.7 148.044 35.476C148.044 35.252 147.928 35.06 147.696 34.9C147.472 34.732 147.172 34.588 146.796 34.468C146.34 34.316 145.908 34.104 145.5 33.832C145.092 33.56 144.888 33.188 144.888 32.716C144.888 32.188 145.084 31.776 145.476 31.48C145.876 31.176 146.416 31.024 147.096 31.024C147.344 31.024 147.656 31.072 148.032 31.168C148.408 31.264 148.72 31.4 148.968 31.576L148.608 32.404Z" fill="#7B7E84"/>
<path d="M204.884 29.812H203.708V32.8H204.824C205.36 32.8 205.816 32.692 206.192 32.476C206.576 32.252 206.772 31.864 206.78 31.312C206.78 30.736 206.604 30.344 206.252 30.136C205.908 29.92 205.452 29.812 204.884 29.812ZM207.356 37L205.532 33.7C205.404 33.708 205.276 33.716 205.148 33.724C205.028 33.732 204.904 33.736 204.776 33.736H203.708V37H202.556V28.84H204.896C205.76 28.84 206.488 29.032 207.08 29.416C207.68 29.792 207.98 30.408 207.98 31.264C207.972 31.8 207.836 32.248 207.572 32.608C207.308 32.96 206.968 33.224 206.552 33.4L208.604 37H207.356ZM214.878 34.348H210.75C210.79 34.884 210.958 35.324 211.254 35.668C211.55 36.012 211.994 36.184 212.586 36.184C212.93 36.184 213.218 36.148 213.45 36.076C213.69 35.996 213.93 35.9 214.17 35.788L214.53 36.628C214.274 36.804 213.946 36.932 213.546 37.012C213.154 37.1 212.834 37.144 212.586 37.144C211.61 37.144 210.858 36.864 210.33 36.304C209.81 35.736 209.55 34.996 209.55 34.084C209.55 33.18 209.794 32.444 210.282 31.876C210.778 31.308 211.462 31.024 212.334 31.024C213.278 31.024 213.938 31.356 214.314 32.02C214.69 32.684 214.878 33.46 214.878 34.348ZM213.762 33.568C213.69 33.088 213.538 32.708 213.306 32.428C213.074 32.148 212.738 32.008 212.298 32.008C211.85 32.008 211.498 32.152 211.242 32.44C210.986 32.72 210.83 33.096 210.774 33.568H213.762ZM217.773 37L215.541 31.348L216.717 31.18L218.325 35.38L219.861 31.18H221.049L218.841 37H217.773ZM222.661 30.136C222.461 30.136 222.293 30.068 222.157 29.932C222.021 29.788 221.953 29.616 221.953 29.416C221.945 29.216 222.009 29.048 222.145 28.912C222.289 28.768 222.461 28.696 222.661 28.696C222.861 28.696 223.033 28.768 223.177 28.912C223.321 29.048 223.393 29.216 223.393 29.416C223.393 29.616 223.321 29.788 223.177 29.932C223.033 30.068 222.861 30.136 222.661 30.136ZM222.085 37V31.18H223.249V37H222.085ZM230.019 34.348H225.891C225.931 34.884 226.099 35.324 226.395 35.668C226.691 36.012 227.135 36.184 227.727 36.184C228.071 36.184 228.359 36.148 228.591 36.076C228.831 35.996 229.071 35.9 229.311 35.788L229.671 36.628C229.415 36.804 229.087 36.932 228.687 37.012C228.295 37.1 227.975 37.144 227.727 37.144C226.751 37.144 225.999 36.864 225.471 36.304C224.951 35.736 224.691 34.996 224.691 34.084C224.691 33.18 224.935 32.444 225.423 31.876C225.919 31.308 226.603 31.024 227.475 31.024C228.419 31.024 229.079 31.356 229.455 32.02C229.831 32.684 230.019 33.46 230.019 34.348ZM228.903 33.568C228.831 33.088 228.679 32.708 228.447 32.428C228.215 32.148 227.879 32.008 227.439 32.008C226.991 32.008 226.639 32.152 226.383 32.44C226.127 32.72 225.971 33.096 225.915 33.568H228.903ZM236.429 37L235.025 32.86L233.693 37H232.637L230.681 31.348L231.857 31.18L233.177 35.284L234.437 31.18H235.649L236.969 35.284L238.229 31.18H239.417L237.485 37H236.429Z" fill="#7B7E84"/>
<path d="M303.327 35.644C303.551 35.756 303.851 35.872 304.227 35.992C304.603 36.104 304.975 36.16 305.343 36.16C305.927 36.16 306.371 36.052 306.675 35.836C306.979 35.62 307.131 35.336 307.131 34.984C307.131 34.176 306.427 33.58 305.019 33.196C303.619 32.804 302.919 31.992 302.919 30.76C302.919 30.168 303.155 29.668 303.627 29.26C304.107 28.852 304.763 28.648 305.595 28.648C306.003 28.648 306.395 28.704 306.771 28.816C307.155 28.928 307.483 29.052 307.755 29.188C307.699 29.34 307.635 29.492 307.563 29.644C307.491 29.796 307.427 29.948 307.371 30.1C307.163 29.996 306.923 29.9 306.651 29.812C306.387 29.716 306.063 29.668 305.679 29.668C305.223 29.668 304.839 29.756 304.527 29.932C304.223 30.108 304.071 30.376 304.071 30.736C304.071 31.56 304.775 32.172 306.183 32.572C307.591 32.972 308.295 33.768 308.295 34.96C308.295 35.6 308.039 36.128 307.527 36.544C307.023 36.952 306.299 37.156 305.355 37.156C305.011 37.156 304.583 37.092 304.071 36.964C303.559 36.836 303.223 36.7 303.063 36.556C303.103 36.404 303.143 36.252 303.183 36.1C303.231 35.948 303.279 35.796 303.327 35.644ZM313.623 36.388C313.367 36.628 313.059 36.824 312.699 36.976C312.347 37.12 312.015 37.192 311.703 37.192C310.991 37.192 310.471 36.988 310.143 36.58C309.823 36.164 309.663 35.644 309.663 35.02V31.18H310.827V34.936C310.827 35.312 310.919 35.62 311.103 35.86C311.295 36.092 311.575 36.208 311.943 36.208C312.159 36.208 312.407 36.152 312.687 36.04C312.967 35.92 313.227 35.76 313.467 35.56V31.18H314.619V37H313.959L313.623 36.388ZM316.404 37V28.66L317.556 28.528V31.516C317.788 31.364 318.04 31.24 318.312 31.144C318.584 31.04 318.84 30.988 319.08 30.988C319.936 30.988 320.58 31.284 321.012 31.876C321.444 32.46 321.66 33.192 321.66 34.072C321.66 34.952 321.44 35.684 321 36.268C320.568 36.852 319.928 37.144 319.08 37.144C318.808 37.144 318.512 37.088 318.192 36.976C317.872 36.856 317.584 36.696 317.328 36.496L317.052 37H316.404ZM317.556 35.656C317.756 35.816 317.972 35.944 318.204 36.04C318.436 36.128 318.652 36.172 318.852 36.172C319.452 36.172 319.872 35.964 320.112 35.548C320.36 35.124 320.484 34.636 320.484 34.084C320.484 33.5 320.368 33.004 320.136 32.596C319.904 32.18 319.476 31.972 318.852 31.972C318.652 31.972 318.436 32.02 318.204 32.116C317.972 32.204 317.756 32.332 317.556 32.5V35.656ZM327.739 31.936C327.987 31.664 328.303 31.44 328.687 31.264C329.079 31.08 329.447 30.988 329.791 30.988C330.503 30.988 331.019 31.196 331.339 31.612C331.667 32.02 331.831 32.536 331.831 33.16V37H330.667V33.268C330.667 32.876 330.571 32.564 330.379 32.332C330.195 32.1 329.915 31.98 329.539 31.972C329.291 31.972 329.027 32.04 328.747 32.176C328.467 32.312 328.211 32.492 327.979 32.716C327.987 32.796 327.991 32.872 327.991 32.944C327.999 33.008 328.003 33.08 328.003 33.16V37H326.839V33.268C326.839 32.876 326.747 32.564 326.563 32.332C326.379 32.1 326.103 31.98 325.735 31.972C325.495 31.972 325.243 32.032 324.979 32.152C324.715 32.272 324.471 32.444 324.247 32.668V37H323.095V31.18H323.743L324.055 31.804C324.311 31.564 324.615 31.368 324.967 31.216C325.327 31.064 325.663 30.988 325.975 30.988C326.415 30.988 326.779 31.076 327.067 31.252C327.363 31.42 327.587 31.648 327.739 31.936ZM334.101 30.136C333.901 30.136 333.733 30.068 333.597 29.932C333.461 29.788 333.393 29.616 333.393 29.416C333.385 29.216 333.449 29.048 333.585 28.912C333.729 28.768 333.901 28.696 334.101 28.696C334.301 28.696 334.473 28.768 334.617 28.912C334.761 29.048 334.833 29.216 334.833 29.416C334.833 29.616 334.761 29.788 334.617 29.932C334.473 30.068 334.301 30.136 334.101 30.136ZM333.525 37V31.18H334.689V37H333.525ZM339.394 36.952C339.29 37.008 339.142 37.064 338.95 37.12C338.766 37.176 338.586 37.204 338.41 37.204C337.842 37.204 337.39 37.048 337.054 36.736C336.718 36.424 336.55 35.972 336.55 35.38V32.128H335.734L335.722 31.252H336.55V29.8L337.702 29.536V31.252H338.758L339.118 32.128H337.702V35.2C337.702 35.496 337.766 35.74 337.894 35.932C338.03 36.116 338.242 36.208 338.53 36.208C338.626 36.208 338.722 36.196 338.818 36.172C338.922 36.14 339.014 36.108 339.094 36.076L339.394 36.952Z" fill="#7B7E84"/>
<path d="M28.2674 10.9593C28.2674 16.7391 23.6152 21.4186 17.8837 21.4186C12.1522 21.4186 7.5 16.7391 7.5 10.9593C7.5 5.17952 12.1522 0.5 17.8837 0.5C23.6152 0.5 28.2674 5.17952 28.2674 10.9593Z" fill="#118592" stroke="#C4C4C4"/>
<path d="M20.3466 15H15.7546L15.6106 13.88H17.3386V7.752L16.3146 8.408L15.5946 7.352L17.8506 5.944H18.8746V13.88H20.2026L20.3466 15Z" fill="#FCFCFC"/>
<path d="M129.267 10.9593C129.267 16.7391 124.615 21.4186 118.884 21.4186C113.152 21.4186 108.5 16.7391 108.5 10.9593C108.5 5.17952 113.152 0.5 118.884 0.5C124.615 0.5 129.267 5.17952 129.267 10.9593Z" fill="#118592" stroke="#C4C4C4"/>
<path d="M118.547 5.736C119.731 5.736 120.558 6.03467 121.027 6.632C121.507 7.22933 121.747 7.85867 121.747 8.52C121.747 9.13867 121.55 9.70933 121.155 10.232C120.771 10.7547 120.195 11.3467 119.427 12.008L117.363 13.816H121.907L122.115 15H115.395V13.912L118.595 11.032C119.235 10.456 119.672 9.992 119.907 9.64C120.152 9.288 120.28 8.91467 120.291 8.52C120.291 8.08267 120.136 7.72 119.827 7.432C119.528 7.13333 119.091 6.984 118.515 6.984C118.056 6.984 117.587 7.11733 117.107 7.384C116.638 7.65067 116.398 7.78933 116.387 7.8L115.715 6.728C115.864 6.61067 116.19 6.41867 116.691 6.152C117.192 5.87467 117.811 5.736 118.547 5.736Z" fill="white"/>
<path d="M230.267 10.9593C230.267 16.7391 225.615 21.4186 219.884 21.4186C214.152 21.4186 209.5 16.7391 209.5 10.9593C209.5 5.17952 214.152 0.5 219.884 0.5C225.615 0.5 230.267 5.17952 230.267 10.9593Z" fill="#118592" stroke="#C4C4C4"/>
<path d="M219.6 5.736C220.699 5.736 221.52 6.008 222.064 6.552C222.608 7.096 222.88 7.72 222.88 8.424C222.88 8.95733 222.72 9.432 222.4 9.848C222.08 10.2533 221.717 10.5307 221.312 10.68C221.771 10.7867 222.176 11.0693 222.528 11.528C222.891 11.976 223.072 12.5307 223.072 13.192C223.072 14.0453 222.736 14.76 222.064 15.336C221.403 15.9227 220.507 16.216 219.376 16.216C218.779 16.216 218.192 16.12 217.616 15.928C217.04 15.736 216.539 15.528 216.112 15.304L216.896 14.248C217.291 14.4827 217.675 14.664 218.048 14.792C218.432 14.9093 218.885 14.968 219.408 14.968C219.963 14.968 220.464 14.8133 220.912 14.504C221.371 14.1947 221.6 13.7627 221.6 13.208C221.6 12.632 221.381 12.168 220.944 11.816C220.507 11.464 219.797 11.288 218.816 11.288H218.336L218.112 10.12H218.912C219.68 10.12 220.288 9.97067 220.736 9.672C221.184 9.36267 221.408 8.95733 221.408 8.456C221.408 8.06133 221.243 7.72 220.912 7.432C220.581 7.13333 220.128 6.984 219.552 6.984C219.029 6.984 218.555 7.07467 218.128 7.256C217.701 7.43733 217.355 7.61867 217.088 7.8L216.352 6.776C216.811 6.47733 217.307 6.232 217.84 6.04C218.373 5.83733 218.96 5.736 219.6 5.736Z" fill="white"/>
<line x1="28" y1="10.5" x2="108" y2="10.5" stroke="#C4C4C4"/>
<line x1="129" y1="10.5" x2="209" y2="10.5" stroke="#C4C4C4"/>
<line x1="231" y1="10.5" x2="310" y2="10.5" stroke="#C4C4C4"/>
<path d="M331.267 10.9593C331.267 16.7391 326.615 21.4186 320.884 21.4186C315.152 21.4186 310.5 16.7391 310.5 10.9593C310.5 5.17952 315.152 0.5 320.884 0.5C326.615 0.5 331.267 5.17952 331.267 10.9593Z" stroke="#C4C4C4"/>
<path d="M324.753 13.944H323.249V16.104H321.713V13.944H317.041L316.833 12.68L322.145 5.864H323.249V12.68H324.929L324.753 13.944ZM318.481 12.68H321.713V8.456L318.481 12.68Z" fill="#C4C4C4"/>
<path d="M324.753 13.944V14.944H325.623L325.743 14.0819L324.753 13.944ZM323.249 13.944V12.944H322.249V13.944H323.249ZM323.249 16.104V17.104H324.249V16.104H323.249ZM321.713 16.104H320.713V17.104H321.713V16.104ZM321.713 13.944H322.713V12.944H321.713V13.944ZM317.041 13.944L316.054 14.1064L316.192 14.944H317.041V13.944ZM316.833 12.68L316.044 12.0653L315.775 12.4105L315.846 12.8424L316.833 12.68ZM322.145 5.864V4.864H321.656L321.356 5.24929L322.145 5.864ZM323.249 5.864H324.249V4.864H323.249V5.864ZM323.249 12.68H322.249V13.68H323.249V12.68ZM324.929 12.68L325.919 12.8179L326.078 11.68H324.929V12.68ZM318.481 12.68L317.686 12.0723L316.456 13.68H318.481V12.68ZM321.713 12.68V13.68H322.713V12.68H321.713ZM321.713 8.456H322.713V5.50345L320.918 7.84833L321.713 8.456ZM324.753 12.944H323.249V14.944H324.753V12.944ZM322.249 13.944V16.104H324.249V13.944H322.249ZM323.249 15.104H321.713V17.104H323.249V15.104ZM322.713 16.104V13.944H320.713V16.104H322.713ZM321.713 12.944H317.041V14.944H321.713V12.944ZM318.027 13.7816L317.819 12.5176L315.846 12.8424L316.054 14.1064L318.027 13.7816ZM317.621 13.2947L322.933 6.47871L321.356 5.24929L316.044 12.0653L317.621 13.2947ZM322.145 6.864H323.249V4.864H322.145V6.864ZM322.249 5.864V12.68H324.249V5.864H322.249ZM323.249 13.68H324.929V11.68H323.249V13.68ZM323.938 12.5421L323.762 13.8061L325.743 14.0819L325.919 12.8179L323.938 12.5421ZM318.481 13.68H321.713V11.68H318.481V13.68ZM322.713 12.68V8.456H320.713V12.68H322.713ZM320.918 7.84833L317.686 12.0723L319.275 13.2877L322.507 9.06367L320.918 7.84833Z" fill="#C4C4C4"/>
</svg>
