<svg width="262" height="120" viewBox="0 0 262 120" fill="none" xmlns="http://www.w3.org/2000/svg">
<rect width="262" height="120" rx="8" fill="#C5EBEF"/>
<circle cx="131.5" cy="60.5" r="27.5" fill="white"/>
<path d="M132 64.2C133.767 64.2 135.2 62.7674 135.2 61C135.2 59.2327 133.767 57.8 132 57.8C130.233 57.8 128.8 59.2327 128.8 61C128.8 62.7674 130.233 64.2 132 64.2Z" fill="#118592"/>
<path d="M129 51L127.17 53H124C122.9 53 122 53.9 122 55V67C122 68.1 122.9 69 124 69H140C141.1 69 142 68.1 142 67V55C142 53.9 141.1 53 140 53H136.83L135 51H129ZM132 66C129.24 66 127 63.76 127 61C127 58.24 129.24 56 132 56C134.76 56 137 58.24 137 61C137 63.76 134.76 66 132 66Z" fill="#118592"/>
</svg>
